<svg xmlns="http://www.w3.org/2000/svg" width="1125" height="675" viewBox="0 0 1125 675" role="img" aria-label="By design business card front"><rect x="0" y="0" width="1125" height="675" rx="0" fill="#101217"/><path d="M100 202L1025 202" fill="none" stroke="#303D55" stroke-width="1"/><path d="M100 456L1025 456" fill="none" stroke="#303D55" stroke-width="1"/><path d="M423 94L423 573" fill="none" stroke="#303D55" stroke-width="1"/><path d="M702 94L702 573" fill="none" stroke="#303D55" stroke-width="1"/><path d="M413 202L433 202" fill="none" stroke="#ADC4FF" stroke-width="1"/><path d="M423 192L423 212" fill="none" stroke="#ADC4FF" stroke-width="1"/><path d="M692 456L712 456" fill="none" stroke="#ADC4FF" stroke-width="1"/><path d="M702 446L702 466" fill="none" stroke="#ADC4FF" stroke-width="1"/><path d="M437.1 221.2L547.1 260.8L591.1 221.2L630.7 221.2L687.9 265.2L626.3 278.4L595.5 353.2L503.1 436.8L533.9 331.2Z" fill="#F0F1F5"/><path d="M109.264 568L102.493 568L102.493 549.142L108.91 549.142Q111.669 549.142 113.061 550.547Q114.453 551.952 114.453 554.065L114.453 554.065Q114.453 555.837 113.586 556.85Q112.72 557.862 111.441 558.191L111.441 558.191L111.441 558.343Q112.34 558.407 113.2 558.982Q114.061 559.558 114.624 560.59Q115.188 561.621 115.188 563.039L115.188 563.039Q115.188 565.19 113.745 566.595Q112.302 568 109.264 568L109.264 568ZM104.29 559.204L104.29 566.393L109.226 566.393Q111.378 566.393 112.416 565.437Q113.454 564.482 113.454 563.026L113.454 563.026Q113.454 561.963 112.935 561.096Q112.416 560.229 111.486 559.716Q110.555 559.204 109.302 559.204L109.302 559.204L104.29 559.204ZM104.29 550.75L104.29 557.66L109.037 557.66Q110.695 557.66 111.707 556.647Q112.72 555.635 112.72 554.103L112.72 554.103Q112.72 552.623 111.751 551.686Q110.783 550.75 108.872 550.75L108.872 550.75L104.29 550.75ZM133.097 568L122.326 568L122.326 549.142L124.136 549.142L124.136 566.393L133.097 566.393L133.097 568ZM140.096 568L138.185 568L145.095 549.142L147.221 549.142L154.195 568L152.297 568L150.259 562.393L142.096 562.393L140.096 568ZM144.5 555.673L142.665 560.799L149.677 560.799L147.816 555.673Q147.475 554.736 147.07 553.509Q146.665 552.281 146.146 550.598L146.146 550.598Q145.639 552.294 145.228 553.534Q144.817 554.774 144.5 555.673L144.5 555.673ZM167.75 568.253L167.75 568.253Q165.371 568.253 163.523 567.063Q161.675 565.874 160.625 563.703Q159.574 561.533 159.574 558.584L159.574 558.584Q159.574 555.622 160.625 553.445Q161.675 551.268 163.523 550.079Q165.371 548.889 167.75 548.889L167.75 548.889Q169.763 548.889 171.338 549.705Q172.914 550.522 173.92 551.92Q174.926 553.319 175.23 555.065L175.23 555.065L173.433 555.065Q173.167 553.774 172.383 552.756Q171.598 551.737 170.414 551.155Q169.231 550.572 167.75 550.572L167.75 550.572Q165.978 550.572 164.517 551.496Q163.055 552.42 162.188 554.205Q161.321 555.989 161.321 558.584L161.321 558.584Q161.321 561.178 162.194 562.963Q163.068 564.747 164.523 565.659Q165.978 566.57 167.75 566.57L167.75 566.57Q169.231 566.57 170.414 565.981Q171.598 565.393 172.383 564.374Q173.167 563.355 173.433 562.077L173.433 562.077L175.23 562.077Q174.939 563.798 173.933 565.197Q172.927 566.595 171.351 567.424Q169.775 568.253 167.75 568.253ZM184.077 568L182.28 568L182.28 549.142L184.077 549.142L184.077 555.685L184.065 559.52Q184.925 558.457 185.78 557.47Q186.634 556.483 187.57 555.47L187.57 555.47L193.43 549.142L195.797 549.142L188.178 557.318L195.797 568L193.658 568L186.938 558.546L184.077 561.583L184.077 568ZM203.847 568L202.05 568L202.05 549.142L208.201 549.142Q211.2 549.142 212.744 550.737Q214.288 552.332 214.288 554.825L214.288 554.825Q214.288 556.711 213.39 558.084Q212.491 559.457 210.745 560.039L210.745 560.039L215.073 568L212.997 568L208.909 560.394Q208.568 560.419 208.213 560.419L208.213 560.419L203.847 560.419L203.847 568ZM203.847 550.75L203.847 558.799L208.137 558.799Q210.327 558.799 211.415 557.723Q212.504 556.647 212.504 554.825L212.504 554.825Q212.504 552.977 211.415 551.863Q210.327 550.75 208.125 550.75L208.125 550.75L203.847 550.75ZM221.629 568L219.718 568L226.629 549.142L228.755 549.142L235.728 568L233.83 568L231.792 562.393L223.629 562.393L221.629 568ZM226.034 555.673L224.199 560.799L231.21 560.799L229.35 555.673Q229.008 554.736 228.603 553.509Q228.198 552.281 227.679 550.598L227.679 550.598Q227.173 552.294 226.761 553.534Q226.35 554.774 226.034 555.673L226.034 555.673ZM249.258 568L247.145 568L240.171 549.142L242.057 549.142L246.537 561.469Q246.866 562.368 247.284 563.621Q247.702 564.874 248.208 566.532L248.208 566.532Q248.727 564.836 249.138 563.602Q249.55 562.368 249.866 561.469L249.866 561.469L254.27 549.142L256.181 549.142L249.258 568ZM273.584 568L262.396 568L262.396 549.142L273.407 549.142L273.407 550.75L264.193 550.75L264.193 557.71L272.825 557.71L272.825 559.318L264.193 559.318L264.193 566.393L273.584 566.393L273.584 568ZM282.634 568L280.824 568L280.824 549.142L282.9 549.142L291.493 561.95Q291.962 562.659 292.582 563.665Q293.202 564.671 293.847 565.861L293.847 565.861Q293.771 564.621 293.746 563.532Q293.721 562.444 293.721 561.621L293.721 561.621L293.721 549.142L295.518 549.142L295.518 568L293.43 568L285.406 556.078Q284.747 555.103 284.102 554.04Q283.457 552.977 282.482 551.344L282.482 551.344Q282.545 552.863 282.59 554.084Q282.634 555.306 282.634 556.065L282.634 556.065L282.634 568Z" fill="#F0F1F5"/><path d="M708.244 568L708.244 568L703.021 568L703.021 551.267L708.457 551.267Q710.905 551.267 712.64 552.266Q714.375 553.266 715.302 555.135Q716.229 557.005 716.229 559.6L716.229 559.6Q716.229 562.216 715.296 564.097Q714.364 565.979 712.579 566.989Q710.793 568 708.244 568ZM705.155 553.153L705.155 566.113L708.109 566.113Q711.164 566.113 712.663 564.378Q714.162 562.643 714.162 559.6L714.162 559.6Q714.162 556.579 712.691 554.866Q711.22 553.153 708.311 553.153L708.311 553.153L705.155 553.153ZM730.918 568L720.62 568L720.62 551.267L730.817 551.267L730.817 553.153L722.754 553.153L722.754 558.611L730.267 558.611L730.267 560.498L722.754 560.498L722.754 566.113L730.918 566.113L730.918 568ZM740.802 568.292L740.802 568.292Q738.084 568.292 736.478 567.006Q734.872 565.72 734.726 563.62L734.726 563.62L736.916 563.62Q737.006 564.563 737.556 565.176Q738.106 565.788 738.966 566.085Q739.825 566.383 740.802 566.383L740.802 566.383Q741.936 566.383 742.84 566.012Q743.744 565.642 744.272 564.968Q744.8 564.294 744.8 563.407L744.8 563.407Q744.8 562.598 744.345 562.093Q743.89 561.587 743.138 561.262Q742.385 560.936 741.487 560.689L741.487 560.689L739.465 560.116Q737.444 559.543 736.321 558.477Q735.198 557.41 735.198 555.748L735.198 555.748Q735.198 554.333 735.961 553.271Q736.725 552.21 738.028 551.626Q739.331 551.042 740.948 551.042L740.948 551.042Q742.599 551.042 743.868 551.626Q745.137 552.21 745.872 553.215Q746.608 554.22 746.653 555.489L746.653 555.489L744.564 555.489Q744.418 554.265 743.396 553.597Q742.374 552.929 740.88 552.929L740.88 552.929Q739.252 552.929 738.264 553.698Q737.275 554.467 737.275 555.646L737.275 555.646Q737.275 556.522 737.82 557.056Q738.365 557.589 739.112 557.887Q739.858 558.185 740.465 558.353L740.465 558.353L742.138 558.813Q742.812 558.993 743.626 559.308Q744.44 559.622 745.182 560.144Q745.923 560.667 746.4 561.469Q746.877 562.272 746.877 563.44L746.877 563.44Q746.877 564.811 746.164 565.911Q745.451 567.012 744.092 567.652Q742.733 568.292 740.802 568.292ZM751.202 551.267L753.335 551.267L753.335 568L751.202 568L751.202 551.267ZM765.218 568.225L765.218 568.225Q762.983 568.225 761.298 567.18Q759.614 566.136 758.67 564.21Q757.727 562.284 757.727 559.645L757.727 559.645Q757.727 556.983 758.67 555.057Q759.614 553.131 761.276 552.086Q762.938 551.042 765.083 551.042L765.083 551.042Q766.857 551.042 768.301 551.733Q769.744 552.423 770.698 553.653Q771.653 554.883 771.956 556.511L771.956 556.511L769.755 556.511Q769.238 554.905 768.053 553.962Q766.869 553.019 765.094 553.019L765.094 553.019Q763.623 553.019 762.421 553.777Q761.22 554.535 760.512 556.011Q759.805 557.488 759.805 559.645L759.805 559.645Q759.805 561.778 760.518 563.25Q761.231 564.721 762.455 565.484Q763.679 566.248 765.218 566.248L765.218 566.248Q766.61 566.248 767.677 565.664Q768.744 565.08 769.356 564.002Q769.968 562.924 769.991 561.453L769.991 561.453L765.656 561.453L765.656 559.588L772.08 559.588L772.08 561.419Q772.08 563.497 771.192 565.024Q770.305 566.551 768.761 567.388Q767.217 568.225 765.218 568.225ZM778.684 568L776.539 568L776.539 551.267L779.054 551.267L785.86 561.969Q786.197 562.508 786.73 563.424Q787.264 564.339 787.836 565.473L787.836 565.473Q787.735 564.26 787.713 563.233Q787.69 562.205 787.69 561.531L787.69 561.531L787.69 551.267L789.824 551.267L789.824 568L787.286 568L781.222 558.477Q780.84 557.881 780.464 557.252Q780.087 556.624 779.627 555.804Q779.167 554.984 778.515 553.827L778.515 553.827Q778.583 555.433 778.633 556.64Q778.684 557.848 778.684 558.454L778.684 558.454L778.684 568ZM807.951 568L805.458 568L800.898 551.267L803.077 551.267L805.728 561.531Q805.997 562.609 806.244 563.721Q806.491 564.833 806.716 566.012L806.716 566.012Q806.94 564.833 807.188 563.721Q807.435 562.609 807.727 561.531L807.727 561.531L810.433 551.267L812.859 551.267L815.543 561.531Q816.104 563.631 816.565 565.945L816.565 565.945Q816.778 564.788 817.031 563.693Q817.284 562.598 817.553 561.531L817.553 561.531L820.192 551.267L822.394 551.267L817.812 568L815.33 568L812.455 557.398Q812.241 556.601 812.033 555.691Q811.826 554.782 811.635 553.681L811.635 553.681Q811.444 554.703 811.253 555.596Q811.062 556.489 810.815 557.398L810.815 557.398L807.951 568ZM825.999 551.267L828.133 551.267L828.133 568L825.999 568L825.999 551.267ZM837.522 553.153L832.255 553.153L832.255 551.267L844.9 551.267L844.9 553.153L839.656 553.153L839.656 568L837.522 568L837.522 553.153ZM851.156 568L849.022 568L849.022 551.267L851.156 551.267L851.156 558.499L859.938 558.499L859.938 551.267L862.072 551.267L862.072 568L859.938 568L859.938 560.386L851.156 560.386L851.156 568ZM879.806 568L879.806 568L874.584 568L874.584 551.267L880.02 551.267Q882.468 551.267 884.203 552.266Q885.938 553.266 886.865 555.135Q887.791 557.005 887.791 559.6L887.791 559.6Q887.791 562.216 886.859 564.097Q885.927 565.979 884.141 566.989Q882.355 568 879.806 568ZM876.718 553.153L876.718 566.113L879.671 566.113Q882.726 566.113 884.225 564.378Q885.725 562.643 885.725 559.6L885.725 559.6Q885.725 556.579 884.253 554.866Q882.782 553.153 879.874 553.153L879.874 553.153L876.718 553.153ZM892.183 551.267L894.316 551.267L894.316 568L892.183 568L892.183 551.267ZM901.493 568L899.359 568L899.359 551.267L905.087 551.267Q907.041 551.267 908.304 551.935Q909.568 552.603 910.18 553.771Q910.792 554.939 910.792 556.433L910.792 556.433Q910.792 558.095 910.034 559.33Q909.276 560.565 907.692 561.116L907.692 561.116L911.443 568L908.973 568L905.491 561.498Q905.3 561.509 905.098 561.509L905.098 561.509L901.493 561.509L901.493 568ZM901.493 553.142L901.493 559.611L904.997 559.611Q906.974 559.611 907.822 558.757Q908.669 557.904 908.669 556.433L908.669 556.433Q908.669 554.939 907.822 554.041Q906.974 553.142 904.975 553.142L904.975 553.142L901.493 553.142ZM925.459 568L915.161 568L915.161 551.267L925.358 551.267L925.358 553.153L917.295 553.153L917.295 558.611L924.808 558.611L924.808 560.498L917.295 560.498L917.295 566.113L925.459 566.113L925.459 568ZM936.758 568.225L936.758 568.225Q934.613 568.225 932.934 567.186Q931.255 566.147 930.295 564.221Q929.334 562.295 929.334 559.645L929.334 559.645Q929.334 556.983 930.295 555.057Q931.255 553.131 932.934 552.086Q934.613 551.042 936.758 551.042L936.758 551.042Q938.454 551.042 939.874 551.699Q941.295 552.356 942.255 553.58Q943.215 554.804 943.507 556.534L943.507 556.534L941.374 556.534Q941.138 555.388 940.458 554.602Q939.779 553.816 938.813 553.417Q937.847 553.019 936.758 553.019L936.758 553.019Q935.253 553.019 934.04 553.782Q932.827 554.546 932.12 556.023Q931.412 557.5 931.412 559.645L931.412 559.645Q931.412 561.778 932.125 563.255Q932.838 564.732 934.051 565.49Q935.264 566.248 936.758 566.248L936.758 566.248Q937.858 566.248 938.819 565.844Q939.779 565.439 940.458 564.653Q941.138 563.867 941.374 562.733L941.374 562.733L943.507 562.733Q943.215 564.429 942.266 565.664Q941.317 566.899 939.897 567.562Q938.476 568.225 936.758 568.225ZM952.133 553.153L946.866 553.153L946.866 551.267L959.511 551.267L959.511 553.153L954.267 553.153L954.267 568L952.133 568L952.133 553.153ZM963.633 551.267L965.767 551.267L965.767 568L963.633 568L963.633 551.267ZM977.593 568.225L977.593 568.225Q975.448 568.225 973.769 567.186Q972.09 566.147 971.125 564.221Q970.159 562.295 970.159 559.645L970.159 559.645Q970.159 556.983 971.125 555.057Q972.09 553.131 973.769 552.086Q975.448 551.042 977.593 551.042L977.593 551.042Q979.738 551.042 981.412 552.086Q983.085 553.131 984.045 555.057Q985.005 556.983 985.005 559.645L985.005 559.645Q985.005 562.295 984.045 564.221Q983.085 566.147 981.412 567.186Q979.738 568.225 977.593 568.225ZM977.593 566.248L977.593 566.248Q979.087 566.248 980.294 565.49Q981.501 564.732 982.215 563.255Q982.928 561.778 982.928 559.645L982.928 559.645Q982.928 557.488 982.215 556.011Q981.501 554.535 980.294 553.777Q979.087 553.019 977.593 553.019L977.593 553.019Q976.088 553.019 974.875 553.782Q973.663 554.546 972.949 556.023Q972.236 557.5 972.236 559.645L972.236 559.645Q972.236 561.778 972.949 563.25Q973.663 564.721 974.875 565.484Q976.088 566.248 977.593 566.248ZM991.542 568L989.397 568L989.397 551.267L991.913 551.267L998.718 561.969Q999.055 562.508 999.589 563.424Q1000.122 564.339 1000.695 565.473L1000.695 565.473Q1000.594 564.26 1000.571 563.233Q1000.549 562.205 1000.549 561.531L1000.549 561.531L1000.549 551.267L1002.683 551.267L1002.683 568L1000.145 568L994.08 558.477Q993.698 557.881 993.322 557.252Q992.946 556.624 992.485 555.804Q992.025 554.984 991.374 553.827L991.374 553.827Q991.441 555.433 991.491 556.64Q991.542 557.848 991.542 558.454L991.542 558.454L991.542 568ZM1009.017 568.146L1009.017 568.146Q1008.388 568.146 1007.945 567.702Q1007.501 567.259 1007.501 566.63L1007.501 566.63Q1007.501 566.001 1007.945 565.557Q1008.388 565.114 1009.017 565.114L1009.017 565.114Q1009.646 565.114 1010.09 565.557Q1010.533 566.001 1010.533 566.63L1010.533 566.63Q1010.533 567.259 1010.09 567.702Q1009.646 568.146 1009.017 568.146Z" fill="#ADC4FF"/></svg>