<svg xmlns="http://www.w3.org/2000/svg" width="1125" height="675" viewBox="0 0 1125 675" role="img" aria-label="Edge of flight business card front"><rect x="0" y="0" width="1125" height="675" rx="0" fill="#101217"/><path d="M650 -2L950 106L1070 -2L1178 -2L1334 118L1166 154L1082 358L830 586L914 298Z" fill="#F0F1F5"/><path d="M114.499 468L101.71 468L101.71 432.38L113.83 432.38Q119.042 432.38 121.671 435.033Q124.301 437.687 124.301 441.679L124.301 441.679Q124.301 445.026 122.663 446.939Q121.026 448.851 118.611 449.473L118.611 449.473L118.611 449.76Q120.309 449.879 121.934 450.967Q123.56 452.055 124.624 454.003Q125.688 455.951 125.688 458.629L125.688 458.629Q125.688 462.693 122.962 465.346Q120.237 468 114.499 468L114.499 468ZM105.104 451.385L105.104 464.964L114.428 464.964Q118.492 464.964 120.452 463.159Q122.412 461.354 122.412 458.605L122.412 458.605Q122.412 456.597 121.432 454.959Q120.452 453.322 118.695 452.353Q116.938 451.385 114.571 451.385L114.571 451.385L105.104 451.385ZM105.104 435.416L105.104 448.469L114.069 448.469Q117.201 448.469 119.113 446.556Q121.026 444.644 121.026 441.751L121.026 441.751Q121.026 438.954 119.197 437.185Q117.368 435.416 113.758 435.416L113.758 435.416L105.104 435.416ZM156.849 468L136.505 468L136.505 432.38L139.923 432.38L139.923 464.964L156.849 464.964L156.849 468ZM167.403 468L163.794 468L176.846 432.38L180.863 432.38L194.035 468L190.449 468L186.6 457.41L171.181 457.41L167.403 468ZM175.723 444.715L172.256 454.397L185.5 454.397L181.986 444.715Q181.341 442.946 180.576 440.627Q179.811 438.308 178.831 435.129L178.831 435.129Q177.874 438.332 177.097 440.675Q176.32 443.018 175.723 444.715L175.723 444.715ZM216.973 468.478L216.973 468.478Q212.478 468.478 208.988 466.231Q205.498 463.984 203.514 459.884Q201.529 455.784 201.529 450.214L201.529 450.214Q201.529 444.62 203.514 440.508Q205.498 436.396 208.988 434.149Q212.478 431.902 216.973 431.902L216.973 431.902Q220.774 431.902 223.75 433.444Q226.727 434.985 228.627 437.627Q230.528 440.269 231.101 443.568L231.101 443.568L227.707 443.568Q227.205 441.129 225.723 439.205Q224.24 437.28 222.005 436.181Q219.77 435.081 216.973 435.081L216.973 435.081Q213.626 435.081 210.865 436.826Q208.104 438.571 206.466 441.942Q204.828 445.313 204.828 450.214L204.828 450.214Q204.828 455.115 206.478 458.485Q208.128 461.856 210.877 463.577Q213.626 465.299 216.973 465.299L216.973 465.299Q219.77 465.299 222.005 464.187Q224.24 463.075 225.723 461.151Q227.205 459.226 227.707 456.812L227.707 456.812L231.101 456.812Q230.552 460.063 228.651 462.705Q226.75 465.346 223.774 466.912Q220.798 468.478 216.973 468.478ZM245.146 468L241.751 468L241.751 432.38L245.146 432.38L245.146 444.739L245.122 451.983Q246.748 449.975 248.361 448.11Q249.975 446.245 251.744 444.333L251.744 444.333L262.813 432.38L267.283 432.38L252.892 447.823L267.283 468L263.243 468L250.549 450.142L245.146 455.88L245.146 468ZM279.822 468L276.427 468L276.427 432.38L288.046 432.38Q293.711 432.38 296.628 435.392Q299.545 438.404 299.545 443.114L299.545 443.114Q299.545 446.676 297.847 449.269Q296.15 451.863 292.851 452.963L292.851 452.963L301.027 468L297.106 468L289.384 453.632Q288.739 453.68 288.07 453.68L288.07 453.68L279.822 453.68L279.822 468ZM279.822 435.416L279.822 450.62L287.926 450.62Q292.062 450.62 294.118 448.588Q296.174 446.556 296.174 443.114L296.174 443.114Q296.174 439.623 294.118 437.52Q292.062 435.416 287.902 435.416L287.902 435.416L279.822 435.416ZM310.744 468L307.135 468L320.187 432.38L324.204 432.38L337.376 468L333.79 468L329.941 457.41L314.522 457.41L310.744 468ZM319.064 444.715L315.597 454.397L328.841 454.397L325.327 444.715Q324.682 442.946 323.917 440.627Q323.152 438.308 322.172 435.129L322.172 435.129Q321.215 438.332 320.438 440.675Q319.661 443.018 319.064 444.715L319.064 444.715ZM360.266 468L356.274 468L343.101 432.38L346.663 432.38L355.126 455.664Q355.748 457.362 356.537 459.728Q357.325 462.095 358.282 465.227L358.282 465.227Q359.262 462.023 360.039 459.693Q360.816 457.362 361.413 455.664L361.413 455.664L369.733 432.38L373.343 432.38L360.266 468ZM403.548 468L382.415 468L382.415 432.38L403.213 432.38L403.213 435.416L385.81 435.416L385.81 448.564L402.114 448.564L402.114 451.6L385.81 451.6L385.81 464.964L403.548 464.964L403.548 468ZM417.975 468L414.557 468L414.557 432.38L418.477 432.38L434.71 456.573Q435.594 457.912 436.765 459.812Q437.937 461.713 439.156 463.96L439.156 463.96Q439.013 461.617 438.965 459.561Q438.917 457.505 438.917 455.951L438.917 455.951L438.917 432.38L442.312 432.38L442.312 468L438.367 468L423.211 445.48Q421.968 443.64 420.748 441.631Q419.529 439.623 417.688 436.539L417.688 436.539Q417.808 439.408 417.891 441.715Q417.975 444.022 417.975 445.456L417.975 445.456L417.975 468Z" fill="#F0F1F5"/><path d="M104.407 537L102.197 537L102.197 518.812L105.493 518.812L109.973 530.286Q110.229 530.945 110.608 532.129Q110.986 533.313 111.316 534.424L111.316 534.424Q111.633 533.35 112.012 532.16Q112.39 530.97 112.659 530.286L112.659 530.286L117.078 518.812L120.386 518.812L120.386 537L118.103 537L118.103 526.612Q118.103 525.611 118.127 524.158Q118.152 522.706 118.188 521.29L118.188 521.29Q117.688 522.852 117.181 524.329Q116.675 525.806 116.357 526.612L116.357 526.612L112.292 537L110.278 537L106.152 526.612Q105.847 525.843 105.353 524.384Q104.858 522.925 104.321 521.326L104.321 521.326Q104.346 522.62 104.376 524.091Q104.407 525.562 104.407 526.612L104.407 526.612L104.407 537ZM127.684 537L125.218 537L131.822 518.812L134.507 518.812L141.197 537L138.755 537L136.937 531.922L129.441 531.922L127.684 537ZM131.431 526.209L130.149 529.896L136.216 529.896L134.898 526.209Q134.568 525.293 134.153 523.969Q133.738 522.645 133.152 520.667L133.152 520.667Q132.579 522.681 132.151 524.024Q131.724 525.367 131.431 526.209L131.431 526.209ZM148.348 537L146.029 537L146.029 518.812L148.348 518.812L148.348 525.037L148.312 528.382Q149.068 527.393 149.844 526.49Q150.619 525.586 151.449 524.683L151.449 524.683L156.881 518.812L159.92 518.812L152.572 526.685L159.933 537L157.186 537L150.973 528.26L148.348 531.031L148.348 537ZM176.02 537L164.826 537L164.826 518.812L175.91 518.812L175.91 520.862L167.145 520.862L167.145 526.795L175.312 526.795L175.312 528.846L167.145 528.846L167.145 534.949L176.02 534.949L176.02 537ZM196.707 537.317L196.707 537.317Q193.752 537.317 192.007 535.92Q190.261 534.522 190.103 532.239L190.103 532.239L192.483 532.239Q192.581 533.265 193.179 533.93Q193.777 534.595 194.711 534.919Q195.645 535.242 196.707 535.242L196.707 535.242Q197.939 535.242 198.922 534.839Q199.905 534.437 200.479 533.704Q201.052 532.972 201.052 532.007L201.052 532.007Q201.052 531.128 200.558 530.579Q200.063 530.03 199.246 529.676Q198.428 529.322 197.451 529.053L197.451 529.053L195.254 528.431Q193.057 527.808 191.836 526.648Q190.615 525.489 190.615 523.682L190.615 523.682Q190.615 522.144 191.445 520.99Q192.275 519.837 193.691 519.202Q195.107 518.567 196.865 518.567L196.865 518.567Q198.66 518.567 200.039 519.202Q201.418 519.837 202.218 520.929Q203.018 522.022 203.066 523.401L203.066 523.401L200.796 523.401Q200.637 522.071 199.526 521.344Q198.416 520.618 196.792 520.618L196.792 520.618Q195.022 520.618 193.948 521.454Q192.874 522.291 192.874 523.572L192.874 523.572Q192.874 524.524 193.466 525.104Q194.058 525.684 194.869 526.008Q195.681 526.331 196.34 526.514L196.34 526.514L198.159 527.015Q198.892 527.21 199.777 527.552Q200.662 527.894 201.467 528.461Q202.273 529.029 202.792 529.902Q203.311 530.774 203.311 532.044L203.311 532.044Q203.311 533.533 202.535 534.729Q201.76 535.926 200.283 536.622Q198.806 537.317 196.707 537.317ZM216.297 537.244L216.297 537.244Q213.965 537.244 212.14 536.115Q210.315 534.986 209.266 532.892Q208.216 530.799 208.216 527.918L208.216 527.918Q208.216 525.025 209.266 522.931Q210.315 520.838 212.14 519.703Q213.965 518.567 216.297 518.567L216.297 518.567Q218.628 518.567 220.447 519.703Q222.266 520.838 223.31 522.931Q224.354 525.025 224.354 527.918L224.354 527.918Q224.354 530.799 223.31 532.892Q222.266 534.986 220.447 536.115Q218.628 537.244 216.297 537.244ZM216.297 535.096L216.297 535.096Q217.92 535.096 219.233 534.272Q220.545 533.448 221.32 531.843Q222.095 530.237 222.095 527.918L222.095 527.918Q222.095 525.574 221.32 523.969Q220.545 522.364 219.233 521.54Q217.92 520.716 216.297 520.716L216.297 520.716Q214.661 520.716 213.343 521.546Q212.024 522.376 211.249 523.981Q210.474 525.586 210.474 527.918L210.474 527.918Q210.474 530.237 211.249 531.836Q212.024 533.436 213.343 534.266Q214.661 535.096 216.297 535.096ZM232.25 537L230.04 537L230.04 518.812L233.336 518.812L237.816 530.286Q238.072 530.945 238.451 532.129Q238.829 533.313 239.159 534.424L239.159 534.424Q239.476 533.35 239.854 532.16Q240.233 530.97 240.501 530.286L240.501 530.286L244.92 518.812L248.229 518.812L248.229 537L245.946 537L245.946 526.612Q245.946 525.611 245.97 524.158Q245.995 522.706 246.031 521.29L246.031 521.29Q245.531 522.852 245.024 524.329Q244.518 525.806 244.2 526.612L244.2 526.612L240.135 537L238.121 537L233.995 526.612Q233.69 525.843 233.196 524.384Q232.701 522.925 232.164 521.326L232.164 521.326Q232.188 522.62 232.219 524.091Q232.25 525.562 232.25 526.612L232.25 526.612L232.25 537ZM265.817 537L254.623 537L254.623 518.812L265.707 518.812L265.707 520.862L256.942 520.862L256.942 526.795L265.109 526.795L265.109 528.846L256.942 528.846L256.942 534.949L265.817 534.949L265.817 537ZM276.374 520.862L270.649 520.862L270.649 518.812L284.394 518.812L284.394 520.862L278.693 520.862L278.693 537L276.374 537L276.374 520.862ZM292.107 537L289.788 537L289.788 518.812L292.107 518.812L292.107 526.673L301.653 526.673L301.653 518.812L303.972 518.812L303.972 537L301.653 537L301.653 528.724L292.107 528.724L292.107 537ZM310.367 518.812L312.686 518.812L312.686 537L310.367 537L310.367 518.812ZM321.412 537L319.081 537L319.081 518.812L321.815 518.812L329.212 530.445Q329.579 531.031 330.158 532.026Q330.738 533.021 331.361 534.253L331.361 534.253Q331.251 532.935 331.227 531.818Q331.202 530.701 331.202 529.969L331.202 529.969L331.202 518.812L333.521 518.812L333.521 537L330.763 537L324.171 526.648Q323.756 526.001 323.347 525.318Q322.938 524.634 322.438 523.743Q321.937 522.852 321.229 521.595L321.229 521.595Q321.302 523.34 321.357 524.653Q321.412 525.965 321.412 526.624L321.412 526.624L321.412 537ZM347.35 537.244L347.35 537.244Q344.921 537.244 343.09 536.109Q341.259 534.974 340.233 532.88Q339.208 530.787 339.208 527.918L339.208 527.918Q339.208 525.025 340.233 522.931Q341.259 520.838 343.065 519.703Q344.872 518.567 347.204 518.567L347.204 518.567Q349.132 518.567 350.701 519.318Q352.27 520.069 353.307 521.406Q354.345 522.742 354.674 524.512L354.674 524.512L352.282 524.512Q351.72 522.767 350.432 521.741Q349.145 520.716 347.216 520.716L347.216 520.716Q345.617 520.716 344.311 521.54Q343.004 522.364 342.235 523.969Q341.466 525.574 341.466 527.918L341.466 527.918Q341.466 530.237 342.241 531.836Q343.017 533.436 344.347 534.266Q345.678 535.096 347.35 535.096L347.35 535.096Q348.864 535.096 350.023 534.461Q351.183 533.826 351.848 532.654Q352.514 531.482 352.538 529.883L352.538 529.883L347.826 529.883L347.826 527.857L354.809 527.857L354.809 529.847Q354.809 532.105 353.844 533.765Q352.88 535.425 351.201 536.335Q349.523 537.244 347.35 537.244Z" fill="#ADC4FF"/><path d="M104.407 578L102.197 578L102.197 559.812L105.493 559.812L109.973 571.286Q110.229 571.945 110.608 573.129Q110.986 574.313 111.316 575.424L111.316 575.424Q111.633 574.35 112.012 573.16Q112.39 571.97 112.659 571.286L112.659 571.286L117.078 559.812L120.386 559.812L120.386 578L118.103 578L118.103 567.612Q118.103 566.611 118.127 565.158Q118.152 563.706 118.188 562.29L118.188 562.29Q117.688 563.852 117.181 565.329Q116.675 566.806 116.357 567.612L116.357 567.612L112.292 578L110.278 578L106.152 567.612Q105.847 566.843 105.353 565.384Q104.858 563.925 104.321 562.326L104.321 562.326Q104.346 563.62 104.376 565.091Q104.407 566.562 104.407 567.612L104.407 567.612L104.407 578ZM127.684 578L125.218 578L131.822 559.812L134.507 559.812L141.197 578L138.755 578L136.937 572.922L129.441 572.922L127.684 578ZM131.431 567.209L130.149 570.896L136.216 570.896L134.898 567.209Q134.568 566.293 134.153 564.969Q133.738 563.645 133.152 561.667L133.152 561.667Q132.579 563.681 132.151 565.024Q131.724 566.367 131.431 567.209L131.431 567.209ZM150.753 561.862L145.028 561.862L145.028 559.812L158.773 559.812L158.773 561.862L153.072 561.862L153.072 578L150.753 578L150.753 561.862ZM168.891 561.862L163.166 561.862L163.166 559.812L176.911 559.812L176.911 561.862L171.21 561.862L171.21 578L168.891 578L168.891 561.862ZM193.498 578L182.304 578L182.304 559.812L193.388 559.812L193.388 561.862L184.624 561.862L184.624 567.795L192.79 567.795L192.79 569.846L184.624 569.846L184.624 575.949L193.498 575.949L193.498 578ZM201.65 578L199.331 578L199.331 559.812L205.557 559.812Q207.681 559.812 209.054 560.538Q210.427 561.264 211.093 562.534Q211.758 563.803 211.758 565.427L211.758 565.427Q211.758 567.233 210.934 568.576Q210.11 569.919 208.389 570.517L208.389 570.517L212.466 578L209.78 578L205.996 570.932Q205.789 570.944 205.569 570.944L205.569 570.944L201.65 570.944L201.65 578ZM201.65 561.85L201.65 568.881L205.459 568.881Q207.607 568.881 208.529 567.954Q209.451 567.026 209.451 565.427L209.451 565.427Q209.451 563.803 208.529 562.827Q207.607 561.85 205.435 561.85L205.435 561.85L201.65 561.85ZM218.824 578.159L218.824 578.159Q218.14 578.159 217.658 577.677Q217.176 577.194 217.176 576.511L217.176 576.511Q217.176 575.827 217.658 575.345Q218.14 574.863 218.824 574.863L218.824 574.863Q219.507 574.863 219.99 575.345Q220.472 575.827 220.472 576.511L220.472 576.511Q220.472 577.194 219.99 577.677Q219.507 578.159 218.824 578.159Z" fill="#ADC4FF"/></svg>