<svg xmlns="http://www.w3.org/2000/svg" width="1125" height="675" viewBox="0 0 1125 675" role="img" aria-label="Editorial white business card back"><rect x="0" y="0" width="1125" height="675" rx="0" fill="#000000"/><path d="M91 97.4L136 113.6L154 97.4L170.2 97.4L193.6 115.4L168.4 120.8L155.8 151.4L118 185.6L130.6 142.4Z" fill="#FFFFFF"/><path d="M119.725 325.75L119.725 325.75Q114.325 325.75 110.475 323.388Q106.625 321.025 104.563 316.8Q102.5 312.575 102.5 307L102.5 307Q102.5 301.425 104.563 297.2Q106.625 292.975 110.475 290.613Q114.325 288.25 119.725 288.25L119.725 288.25Q125.95 288.25 130.1 291.363Q134.25 294.475 135.925 299.75L135.925 299.75L129.85 301.425Q128.8 297.9 126.275 295.913Q123.75 293.925 119.725 293.925L119.725 293.925Q116.1 293.925 113.688 295.55Q111.275 297.175 110.063 300.113Q108.85 303.05 108.825 307L108.825 307Q108.825 310.95 110.038 313.888Q111.25 316.825 113.675 318.45Q116.1 320.075 119.725 320.075L119.725 320.075Q123.75 320.075 126.275 318.075Q128.8 316.075 129.85 312.575L129.85 312.575L135.925 314.25Q134.25 319.525 130.1 322.638Q125.95 325.75 119.725 325.75ZM165.7 325L159.6 325L159.6 312Q159.6 310.725 159.425 309.175Q159.25 307.625 158.613 306.188Q157.975 304.75 156.713 303.825Q155.45 302.9 153.3 302.9L153.3 302.9Q152.15 302.9 151.025 303.275Q149.9 303.65 148.988 304.563Q148.075 305.475 147.525 307.063Q146.975 308.65 146.975 311.125L146.975 311.125L143.4 309.6Q143.4 306.15 144.738 303.35Q146.075 300.55 148.675 298.888Q151.275 297.225 155.075 297.225L155.075 297.225Q158.075 297.225 160.025 298.225Q161.975 299.225 163.125 300.775Q164.275 302.325 164.825 304.075Q165.375 305.825 165.538 307.388Q165.7 308.95 165.7 309.925L165.7 309.925L165.7 325ZM146.975 325L140.875 325L140.875 289L146.25 289L146.25 307.95L146.975 307.95L146.975 325ZM177.75 325L171.7 325L171.7 298L177.025 298L177.025 304.575L176.375 303.725Q176.875 302.375 177.713 301.263Q178.55 300.15 179.725 299.425L179.725 299.425Q180.725 298.75 181.938 298.363Q183.15 297.975 184.425 297.888Q185.7 297.8 186.9 298L186.9 298L186.9 303.625Q185.7 303.275 184.138 303.4Q182.575 303.525 181.325 304.275L181.325 304.275Q180.075 304.95 179.288 306Q178.5 307.05 178.125 308.388Q177.75 309.725 177.75 311.275L177.75 311.275L177.75 325ZM197.675 293.9L191.65 293.9L191.65 288.375L197.675 288.375L197.675 293.9ZM197.675 325L191.65 325L191.65 298L197.675 298L197.675 325ZM215.1 325.75L215.1 325.75Q210.1 325.75 206.975 323.5Q203.85 321.25 203.175 317.175L203.175 317.175L209.325 316.225Q209.8 318.225 211.425 319.375Q213.05 320.525 215.525 320.525L215.525 320.525Q217.7 320.525 218.888 319.663Q220.075 318.8 220.075 317.3L220.075 317.3Q220.075 316.375 219.638 315.813Q219.2 315.25 217.725 314.725Q216.25 314.2 213.2 313.4L213.2 313.4Q209.8 312.5 207.8 311.463Q205.8 310.425 204.925 309Q204.05 307.575 204.05 305.55L204.05 305.55Q204.05 303.025 205.375 301.15Q206.7 299.275 209.075 298.263Q211.45 297.25 214.675 297.25L214.675 297.25Q217.825 297.25 220.263 298.225Q222.7 299.2 224.2 301Q225.7 302.8 226.05 305.225L226.05 305.225L219.9 306.325Q219.675 304.6 218.338 303.6Q217 302.6 214.775 302.475L214.775 302.475Q212.65 302.35 211.35 303.113Q210.05 303.875 210.05 305.25L210.05 305.25Q210.05 306.025 210.575 306.575Q211.1 307.125 212.688 307.675Q214.275 308.225 217.425 309.025L217.425 309.025Q220.65 309.85 222.588 310.913Q224.525 311.975 225.388 313.45Q226.25 314.925 226.25 317.025L226.25 317.025Q226.25 321.1 223.288 323.425Q220.325 325.75 215.1 325.75ZM247.075 319.95L247.075 325Q244.4 325.5 241.838 325.438Q239.275 325.375 237.25 324.488Q235.225 323.6 234.175 321.675L234.175 321.675Q233.25 319.925 233.2 318.1Q233.15 316.275 233.15 313.975L233.15 313.975L233.15 290.5L239.15 290.5L239.15 313.625Q239.15 315.25 239.188 316.475Q239.225 317.7 239.7 318.475L239.7 318.475Q240.6 319.975 242.575 320.15Q244.55 320.325 247.075 319.95L247.075 319.95ZM247.075 302.725L228.25 302.725L228.25 298L247.075 298L247.075 302.725ZM264.325 325.75L264.325 325.75Q260.275 325.75 257.25 323.925Q254.225 322.1 252.563 318.888Q250.9 315.675 250.9 311.5L250.9 311.5Q250.9 307.25 252.6 304.05Q254.3 300.85 257.325 299.05Q260.35 297.25 264.325 297.25L264.325 297.25Q268.4 297.25 271.425 299.075Q274.45 300.9 276.125 304.113Q277.8 307.325 277.8 311.5L277.8 311.5Q277.8 315.7 276.113 318.913Q274.425 322.125 271.4 323.938Q268.375 325.75 264.325 325.75ZM264.325 320.1L264.325 320.1Q267.925 320.1 269.675 317.7Q271.425 315.3 271.425 311.5L271.425 311.5Q271.425 307.575 269.65 305.238Q267.875 302.9 264.325 302.9L264.325 302.9Q261.9 302.9 260.338 303.988Q258.775 305.075 258.025 307.013Q257.275 308.95 257.275 311.5L257.275 311.5Q257.275 315.425 259.063 317.763Q260.85 320.1 264.325 320.1ZM295.775 325.75L295.775 325.75Q291.825 325.75 289.15 323.875Q286.475 322 285.125 318.763Q283.775 315.525 283.775 311.5L283.775 311.5Q283.775 307.425 285.125 304.2Q286.475 300.975 289.088 299.113Q291.7 297.25 295.55 297.25L295.55 297.25Q299.375 297.25 302.188 299.113Q305 300.975 306.55 304.188Q308.1 307.4 308.1 311.5L308.1 311.5Q308.1 315.55 306.575 318.775Q305.05 322 302.275 323.875Q299.5 325.75 295.775 325.75ZM288.825 337L282.75 337L282.75 298L288.075 298L288.075 316.95L288.825 316.95L288.825 337ZM294.85 320.35L294.85 320.35Q297.2 320.35 298.725 319.175Q300.25 318 300.988 315.988Q301.725 313.975 301.725 311.5L301.725 311.5Q301.725 309.05 300.975 307.038Q300.225 305.025 298.65 303.838Q297.075 302.65 294.65 302.65L294.65 302.65Q292.35 302.65 290.9 303.763Q289.45 304.875 288.763 306.863Q288.075 308.85 288.075 311.5L288.075 311.5Q288.075 314.125 288.763 316.125Q289.45 318.125 290.938 319.238Q292.425 320.35 294.85 320.35ZM337.875 325L331.775 325L331.775 312Q331.775 310.725 331.6 309.175Q331.425 307.625 330.788 306.188Q330.15 304.75 328.888 303.825Q327.625 302.9 325.475 302.9L325.475 302.9Q324.325 302.9 323.2 303.275Q322.075 303.65 321.163 304.563Q320.25 305.475 319.7 307.063Q319.15 308.65 319.15 311.125L319.15 311.125L315.575 309.6Q315.575 306.15 316.913 303.35Q318.25 300.55 320.85 298.888Q323.45 297.225 327.25 297.225L327.25 297.225Q330.25 297.225 332.2 298.225Q334.15 299.225 335.3 300.775Q336.45 302.325 337 304.075Q337.55 305.825 337.713 307.388Q337.875 308.95 337.875 309.925L337.875 309.925L337.875 325ZM319.15 325L313.05 325L313.05 289L318.425 289L318.425 307.95L319.15 307.95L319.15 325ZM356.15 325.75L356.15 325.75Q352.05 325.75 348.95 323.975Q345.85 322.2 344.113 319.05Q342.375 315.9 342.375 311.8L342.375 311.8Q342.375 307.375 344.075 304.113Q345.775 300.85 348.8 299.05Q351.825 297.25 355.8 297.25L355.8 297.25Q360 297.25 362.938 299.213Q365.875 301.175 367.3 304.75Q368.725 308.325 368.375 313.175L368.375 313.175L362.4 313.175L362.4 310.975Q362.375 306.575 360.85 304.55Q359.325 302.525 356.05 302.525L356.05 302.525Q352.35 302.525 350.55 304.813Q348.75 307.1 348.75 311.5L348.75 311.5Q348.75 315.6 350.55 317.85Q352.35 320.1 355.8 320.1L355.8 320.1Q358.025 320.1 359.638 319.113Q361.25 318.125 362.125 316.25L362.125 316.25L368.075 318.05Q366.525 321.7 363.288 323.725Q360.05 325.75 356.15 325.75ZM365.425 313.175L346.85 313.175L346.85 308.625L365.425 308.625L365.425 313.175ZM379.525 325L373.475 325L373.475 298L378.8 298L378.8 304.575L378.15 303.725Q378.65 302.375 379.488 301.263Q380.325 300.15 381.5 299.425L381.5 299.425Q382.5 298.75 383.713 298.363Q384.925 297.975 386.2 297.888Q387.475 297.8 388.675 298L388.675 298L388.675 303.625Q387.475 303.275 385.913 303.4Q384.35 303.525 383.1 304.275L383.1 304.275Q381.85 304.95 381.063 306Q380.275 307.05 379.9 308.388Q379.525 309.725 379.525 311.275L379.525 311.275L379.525 325ZM415.75 325.75L415.75 325.75Q411.8 325.75 408.638 324.375Q405.475 323 403.438 320.438Q401.4 317.875 400.85 314.35L400.85 314.35L407.1 313.4Q407.9 316.6 410.388 318.35Q412.875 320.1 416.125 320.1L416.125 320.1Q418.05 320.1 419.75 319.5Q421.45 318.9 422.513 317.75Q423.575 316.6 423.575 314.925L423.575 314.925Q423.575 314.175 423.325 313.538Q423.075 312.9 422.588 312.4Q422.1 311.9 421.338 311.488Q420.575 311.075 419.575 310.775L419.575 310.775L410.275 308.025Q409.075 307.675 407.688 307.088Q406.3 306.5 405.063 305.463Q403.825 304.425 403.038 302.813Q402.25 301.2 402.25 298.825L402.25 298.825Q402.25 295.35 404.013 292.988Q405.775 290.625 408.763 289.45Q411.75 288.275 415.4 288.3L415.4 288.3Q419.1 288.325 422 289.563Q424.9 290.8 426.85 293.15Q428.8 295.5 429.6 298.825L429.6 298.825L423.125 299.95Q422.725 298.05 421.588 296.713Q420.45 295.375 418.813 294.675Q417.175 293.975 415.325 293.925L415.325 293.925Q413.525 293.9 411.988 294.463Q410.45 295.025 409.513 296.075Q408.575 297.125 408.575 298.525L408.575 298.525Q408.575 299.85 409.375 300.688Q410.175 301.525 411.363 302.013Q412.55 302.5 413.775 302.825L413.775 302.825L420.225 304.625Q421.55 304.975 423.2 305.575Q424.85 306.175 426.375 307.25Q427.9 308.325 428.888 310.075Q429.875 311.825 429.875 314.525L429.875 314.525Q429.875 317.325 428.713 319.438Q427.55 321.55 425.575 322.95Q423.6 324.35 421.063 325.05Q418.525 325.75 415.75 325.75ZM459.575 325L453.475 325L453.475 312Q453.475 310.725 453.3 309.175Q453.125 307.625 452.488 306.188Q451.85 304.75 450.588 303.825Q449.325 302.9 447.175 302.9L447.175 302.9Q446.025 302.9 444.9 303.275Q443.775 303.65 442.863 304.563Q441.95 305.475 441.4 307.063Q440.85 308.65 440.85 311.125L440.85 311.125L437.275 309.6Q437.275 306.15 438.613 303.35Q439.95 300.55 442.55 298.888Q445.15 297.225 448.95 297.225L448.95 297.225Q451.95 297.225 453.9 298.225Q455.85 299.225 457 300.775Q458.15 302.325 458.7 304.075Q459.25 305.825 459.413 307.388Q459.575 308.95 459.575 309.925L459.575 309.925L459.575 325ZM440.85 325L434.75 325L434.75 289L440.125 289L440.125 307.95L440.85 307.95L440.85 325ZM473.125 325.75L473.125 325.75Q470.2 325.75 468.175 324.638Q466.15 323.525 465.113 321.675Q464.075 319.825 464.075 317.6L464.075 317.6Q464.075 315.65 464.725 314.088Q465.375 312.525 466.725 311.388Q468.075 310.25 470.225 309.525L470.225 309.525Q471.85 309 474.038 308.575Q476.225 308.15 478.788 307.788Q481.35 307.425 484.15 307L484.15 307L482 308.225Q482.025 305.425 480.75 304.1Q479.475 302.775 476.45 302.775L476.45 302.775Q474.625 302.775 472.925 303.625Q471.225 304.475 470.55 306.55L470.55 306.55L465.05 304.825Q466.05 301.4 468.863 299.325Q471.675 297.25 476.45 297.25L476.45 297.25Q480.05 297.25 482.788 298.425Q485.525 299.6 486.85 302.275L486.85 302.275Q487.575 303.7 487.725 305.188Q487.875 306.675 487.875 308.425L487.875 308.425L487.875 325L482.6 325L482.6 319.15L483.475 320.1Q481.65 323.025 479.213 324.388Q476.775 325.75 473.125 325.75ZM474.325 320.95L474.325 320.95Q476.375 320.95 477.825 320.225Q479.275 319.5 480.138 318.45Q481 317.4 481.3 316.475L481.3 316.475Q481.775 315.325 481.838 313.838Q481.9 312.35 481.9 311.425L481.9 311.425L483.75 311.975Q481.025 312.4 479.075 312.725Q477.125 313.05 475.725 313.338Q474.325 313.625 473.25 313.975L473.25 313.975Q472.2 314.35 471.475 314.85Q470.75 315.35 470.363 316Q469.975 316.65 469.975 317.525L469.975 317.525Q469.975 318.525 470.475 319.288Q470.975 320.05 471.938 320.5Q472.9 320.95 474.325 320.95ZM504.325 325L499.625 325L491.375 297.95L497.275 298L502.55 315.325L507.9 298L512.975 298L518.3 315.325L523.6 298L529.5 298L521.25 325L516.55 325L510.425 306.425L504.325 325Z" fill="#FFFFFF"/><path d="M107.134 370L104.82 370L104.82 351.28L115.74 351.28L115.74 353.594L107.134 353.594L107.134 359.483L114.18 359.483L114.18 361.797L107.134 361.797L107.134 370ZM128.776 370.39L128.776 370.39Q125.981 370.39 124.031 369.155Q122.081 367.92 121.061 365.723Q120.04 363.526 120.04 360.64L120.04 360.64Q120.04 357.754 121.061 355.557Q122.081 353.36 124.031 352.125Q125.981 350.89 128.776 350.89L128.776 350.89Q131.584 350.89 133.534 352.125Q135.484 353.36 136.498 355.557Q137.512 357.754 137.512 360.64L137.512 360.64Q137.512 363.526 136.498 365.723Q135.484 367.92 133.534 369.155Q131.584 370.39 128.776 370.39ZM128.776 368.18L128.776 368.18Q130.869 368.193 132.267 367.238Q133.664 366.282 134.36 364.579Q135.055 362.876 135.055 360.64L135.055 360.64Q135.055 358.391 134.36 356.701Q133.664 355.011 132.267 354.062Q130.869 353.113 128.776 353.1L128.776 353.1Q126.683 353.087 125.299 354.036Q123.914 354.985 123.212 356.688Q122.51 358.391 122.497 360.64L122.497 360.64Q122.484 362.876 123.186 364.566Q123.888 366.256 125.286 367.212Q126.683 368.167 128.776 368.18ZM150.496 370.39L150.496 370.39Q148.325 370.39 146.661 369.493Q144.997 368.596 144.055 366.978Q143.112 365.359 143.112 363.175L143.112 363.175L143.112 351.293L145.452 351.28L145.452 362.98Q145.452 364.306 145.901 365.288Q146.349 366.269 147.09 366.919Q147.831 367.569 148.722 367.888Q149.612 368.206 150.496 368.206L150.496 368.206Q151.393 368.206 152.29 367.881Q153.187 367.556 153.922 366.913Q154.656 366.269 155.098 365.281Q155.54 364.293 155.54 362.98L155.54 362.98L155.54 351.28L157.88 351.28L157.88 363.175Q157.88 365.346 156.938 366.971Q155.995 368.596 154.331 369.493Q152.667 370.39 150.496 370.39ZM166.86 370L164.52 370L164.52 351.28L166.86 351.28L176.623 365.905L176.623 351.28L178.963 351.28L178.963 370L176.623 370L166.86 355.362L166.86 370ZM191.375 370L185.603 370L185.603 351.28L191.375 351.28Q191.661 351.28 192.376 351.293Q193.091 351.306 193.741 351.397L193.741 351.397Q195.912 351.683 197.374 352.977Q198.837 354.27 199.578 356.259Q200.319 358.248 200.319 360.64L200.319 360.64Q200.319 363.032 199.578 365.021Q198.837 367.01 197.374 368.304Q195.912 369.597 193.741 369.883L193.741 369.883Q193.091 369.961 192.37 369.981Q191.648 370 191.375 370L191.375 370ZM187.982 353.49L187.982 367.79L191.375 367.79Q191.869 367.79 192.48 367.758Q193.091 367.725 193.546 367.647L193.546 367.647Q195.08 367.361 196.029 366.36Q196.978 365.359 197.42 363.864Q197.862 362.369 197.862 360.64L197.862 360.64Q197.862 358.872 197.414 357.377Q196.965 355.882 196.016 354.894Q195.067 353.906 193.546 353.633L193.546 353.633Q193.091 353.542 192.467 353.516Q191.843 353.49 191.375 353.49L191.375 353.49L187.982 353.49ZM218.139 370L206.309 370L206.309 351.28L218.139 351.28L218.139 353.477L208.623 353.477L208.623 359.34L216.579 359.34L216.579 361.537L208.623 361.537L208.623 367.803L218.139 367.803L218.139 370ZM226.573 370L224.259 370L224.259 351.28L231.656 351.28Q231.929 351.28 232.306 351.3Q232.683 351.319 233.034 351.384L233.034 351.384Q234.555 351.618 235.588 352.424Q236.622 353.23 237.142 354.459Q237.662 355.687 237.662 357.182L237.662 357.182Q237.662 359.353 236.531 360.946Q235.4 362.538 233.216 362.941L233.216 362.941L232.332 363.084L226.573 363.084L226.573 370ZM238.052 370L235.4 370L231.708 362.382L233.996 361.68L238.052 370ZM226.573 353.477L226.573 360.887L231.578 360.887Q231.825 360.887 232.143 360.861Q232.462 360.835 232.748 360.77L232.748 360.77Q233.645 360.562 234.21 360.01Q234.776 359.457 235.036 358.71Q235.296 357.962 235.296 357.182L235.296 357.182Q235.296 356.402 235.036 355.655Q234.776 354.907 234.21 354.348Q233.645 353.789 232.748 353.594L232.748 353.594Q232.462 353.516 232.143 353.496Q231.825 353.477 231.578 353.477L231.578 353.477L226.573 353.477Z" fill="#FFFFFF"/><path d="M100 425L1025 425" fill="none" stroke="#FFFFFF" stroke-width="1"/><path d="M109.231 509.493L109.231 509.493Q106.001 509.493 103.919 508.099Q101.836 506.705 101.36 504.223L101.36 504.223L103.91 503.798Q104.318 505.362 105.772 506.289Q107.225 507.215 109.367 507.215L109.367 507.215Q111.458 507.215 112.665 506.34Q113.872 505.464 113.872 503.951L113.872 503.951Q113.872 503.101 113.49 502.566Q113.107 502.03 111.934 501.571Q110.761 501.112 108.432 500.483L108.432 500.483Q105.933 499.803 104.522 499.123Q103.111 498.443 102.516 497.551Q101.921 496.658 101.921 495.366L101.921 495.366Q101.921 493.802 102.805 492.621Q103.689 491.439 105.253 490.785Q106.817 490.13 108.891 490.13L108.891 490.13Q110.965 490.13 112.606 490.802Q114.246 491.473 115.249 492.68Q116.252 493.887 116.439 495.485L116.439 495.485L113.889 495.944Q113.634 494.329 112.283 493.386Q110.931 492.442 108.857 492.408L108.857 492.408Q106.902 492.357 105.678 493.148Q104.454 493.938 104.454 495.247L104.454 495.247Q104.454 495.978 104.896 496.497Q105.338 497.015 106.503 497.474Q107.667 497.933 109.826 498.477L109.826 498.477Q112.359 499.123 113.804 499.837Q115.249 500.551 115.861 501.52Q116.473 502.489 116.473 503.917L116.473 503.917Q116.473 506.518 114.544 508.006Q112.614 509.493 109.231 509.493ZM127.251 509.459L127.251 509.459Q125.602 509.459 124.369 508.949Q123.137 508.439 122.279 507.572Q121.42 506.705 120.893 505.592Q120.366 504.478 120.128 503.229Q119.89 501.979 119.89 500.738L119.89 500.738L119.89 490.64L122.406 490.64L122.406 500.007Q122.406 501.52 122.695 502.812Q122.984 504.104 123.622 505.065Q124.259 506.025 125.271 506.552Q126.282 507.079 127.727 507.079L127.727 507.079Q129.053 507.079 130.065 506.62Q131.076 506.161 131.765 505.303Q132.453 504.444 132.81 503.212Q133.167 501.979 133.167 500.432L133.167 500.432L134.935 500.823Q134.935 503.645 133.949 505.566Q132.963 507.487 131.229 508.473Q129.495 509.459 127.251 509.459ZM135.666 509L133.422 509L133.422 504.478L133.167 504.478L133.167 490.64L135.666 490.64L135.666 509ZM148.671 509.51L148.671 509.51Q146.138 509.51 144.387 508.227Q142.636 506.943 141.735 504.742Q140.834 502.54 140.834 499.803L140.834 499.803Q140.834 497.015 141.743 494.831Q142.653 492.646 144.421 491.388Q146.189 490.13 148.773 490.13L148.773 490.13Q151.289 490.13 153.091 491.405Q154.893 492.68 155.854 494.873Q156.814 497.066 156.814 499.803L156.814 499.803Q156.814 502.557 155.845 504.75Q154.876 506.943 153.057 508.227Q151.238 509.51 148.671 509.51ZM142.925 517.16L140.409 517.16L140.409 490.64L142.653 490.64L142.653 504.461L142.925 504.461L142.925 517.16ZM148.416 507.181L148.416 507.181Q150.337 507.181 151.612 506.212Q152.887 505.243 153.525 503.569Q154.162 501.894 154.162 499.803L154.162 499.803Q154.162 497.729 153.533 496.063Q152.904 494.397 151.621 493.428Q150.337 492.459 148.365 492.459L148.365 492.459Q146.444 492.459 145.177 493.394Q143.911 494.329 143.282 495.987Q142.653 497.644 142.653 499.803L142.653 499.803Q142.653 501.928 143.282 503.603Q143.911 505.277 145.186 506.229Q146.461 507.181 148.416 507.181ZM168.799 509.51L168.799 509.51Q166.266 509.51 164.515 508.227Q162.764 506.943 161.863 504.742Q160.962 502.54 160.962 499.803L160.962 499.803Q160.962 497.015 161.871 494.831Q162.781 492.646 164.549 491.388Q166.317 490.13 168.901 490.13L168.901 490.13Q171.417 490.13 173.219 491.405Q175.021 492.68 175.981 494.873Q176.942 497.066 176.942 499.803L176.942 499.803Q176.942 502.557 175.973 504.75Q175.004 506.943 173.185 508.227Q171.366 509.51 168.799 509.51ZM163.053 517.16L160.537 517.16L160.537 490.64L162.781 490.64L162.781 504.461L163.053 504.461L163.053 517.16ZM168.544 507.181L168.544 507.181Q170.465 507.181 171.74 506.212Q173.015 505.243 173.652 503.569Q174.29 501.894 174.29 499.803L174.29 499.803Q174.29 497.729 173.661 496.063Q173.032 494.397 171.748 493.428Q170.465 492.459 168.493 492.459L168.493 492.459Q166.572 492.459 165.305 493.394Q164.039 494.329 163.41 495.987Q162.781 497.644 162.781 499.803L162.781 499.803Q162.781 501.928 163.41 503.603Q164.039 505.277 165.314 506.229Q166.589 507.181 168.544 507.181ZM188.349 509.51L188.349 509.51Q185.612 509.51 183.674 508.269Q181.736 507.028 180.699 504.835Q179.662 502.642 179.662 499.803L179.662 499.803Q179.662 496.913 180.716 494.737Q181.77 492.561 183.716 491.346Q185.663 490.13 188.349 490.13L188.349 490.13Q191.103 490.13 193.049 491.363Q194.996 492.595 196.024 494.78Q197.053 496.964 197.053 499.803L197.053 499.803Q197.053 502.693 196.016 504.878Q194.979 507.062 193.024 508.286Q191.069 509.51 188.349 509.51ZM188.349 507.113L188.349 507.113Q191.409 507.113 192.905 505.082Q194.401 503.05 194.401 499.803L194.401 499.803Q194.401 496.471 192.896 494.499Q191.392 492.527 188.349 492.527L188.349 492.527Q186.292 492.527 184.957 493.454Q183.623 494.38 182.968 496.02Q182.314 497.661 182.314 499.803L182.314 499.803Q182.314 503.118 183.844 505.116Q185.374 507.113 188.349 507.113ZM203.292 509L200.793 509L200.793 490.64L203.037 490.64L203.037 495.06L202.595 494.482Q202.901 493.666 203.394 492.978Q203.887 492.289 204.465 491.847L204.465 491.847Q205.179 491.218 206.131 490.887Q207.083 490.555 208.052 490.496Q209.021 490.436 209.82 490.64L209.82 490.64L209.82 492.986Q208.817 492.731 207.627 492.867Q206.437 493.003 205.434 493.819L205.434 493.819Q204.516 494.533 204.057 495.528Q203.598 496.522 203.445 497.636Q203.292 498.749 203.292 499.837L203.292 499.837L203.292 509ZM223.046 506.807L223.046 509Q221.499 509.323 219.994 509.255Q218.49 509.187 217.308 508.609Q216.127 508.031 215.515 506.807L215.515 506.807Q215.022 505.787 214.979 504.742Q214.937 503.696 214.937 502.353L214.937 502.353L214.937 485.54L217.419 485.54L217.419 502.251Q217.419 503.407 217.444 504.181Q217.47 504.954 217.793 505.549L217.793 505.549Q218.405 506.688 219.739 506.909Q221.074 507.13 223.046 506.807L223.046 506.807ZM223.046 492.782L211.01 492.782L211.01 490.64L223.046 490.64L223.046 492.782ZM239.706 512.57L239.706 512.57Q236.986 512.57 234.674 511.627Q232.362 510.683 230.645 508.992Q228.928 507.3 227.967 505.005Q227.007 502.71 227.007 500.007L227.007 500.007Q227.007 497.134 227.942 494.763Q228.877 492.391 230.585 490.666Q232.294 488.94 234.64 488.005Q236.986 487.07 239.791 487.07L239.791 487.07Q243.004 487.07 245.409 488.099Q247.815 489.127 249.379 490.887Q250.943 492.646 251.665 494.839Q252.388 497.032 252.269 499.378L252.269 499.378Q252.099 502.591 250.747 504.223Q249.396 505.855 246.982 505.855L246.982 505.855Q245.418 505.855 244.262 505.124Q243.106 504.393 242.715 503.067L242.715 503.067L243.531 503.152Q242.936 504.359 241.754 504.903Q240.573 505.447 239.298 505.447L239.298 505.447Q237.751 505.447 236.586 504.776Q235.422 504.104 234.767 502.914Q234.113 501.724 234.113 500.16L234.113 500.16Q234.113 498.528 234.793 497.338Q235.473 496.148 236.663 495.502Q237.853 494.856 239.349 494.856L239.349 494.856Q240.454 494.856 241.635 495.315Q242.817 495.774 243.446 496.811L243.446 496.811L242.783 497.559L242.783 495.332L244.585 495.332L244.568 500.857Q244.568 502.115 245.154 502.906Q245.741 503.696 247.101 503.696L247.101 503.696Q248.019 503.696 248.639 503.186Q249.26 502.676 249.6 501.75Q249.94 500.823 249.991 499.565L249.991 499.565Q250.093 496.981 249.328 495.043Q248.563 493.105 247.152 491.805Q245.741 490.504 243.879 489.858Q242.018 489.212 239.91 489.212L239.91 489.212Q237.36 489.212 235.379 490.062Q233.399 490.912 232.03 492.408Q230.662 493.904 229.965 495.851Q229.268 497.797 229.302 499.99L229.302 499.99Q229.319 502.251 230.126 504.164Q230.934 506.076 232.362 507.479Q233.79 508.881 235.694 509.655Q237.598 510.428 239.825 510.428L239.825 510.428Q241.27 510.428 242.723 510.054Q244.177 509.68 245.316 509.017L245.316 509.017L246.115 510.921Q244.636 511.754 243.004 512.162Q241.372 512.57 239.706 512.57ZM239.434 503.271L239.434 503.271Q240.76 503.271 241.601 502.506Q242.443 501.741 242.443 500.143L242.443 500.143Q242.443 498.579 241.635 497.78Q240.828 496.981 239.485 496.981L239.485 496.981Q237.955 496.981 237.147 497.814Q236.34 498.647 236.34 500.143L236.34 500.143Q236.34 501.656 237.173 502.464Q238.006 503.271 239.434 503.271ZM265.631 509.51L265.631 509.51Q263.098 509.51 261.347 508.227Q259.596 506.943 258.695 504.742Q257.794 502.54 257.794 499.803L257.794 499.803Q257.794 497.015 258.703 494.831Q259.613 492.646 261.381 491.388Q263.149 490.13 265.733 490.13L265.733 490.13Q268.249 490.13 270.051 491.405Q271.853 492.68 272.813 494.873Q273.774 497.066 273.774 499.803L273.774 499.803Q273.774 502.557 272.805 504.75Q271.836 506.943 270.017 508.227Q268.198 509.51 265.631 509.51ZM259.613 509L257.369 509L257.369 484.52L259.885 484.52L259.885 495.179L259.613 495.179L259.613 509ZM265.376 507.181L265.376 507.181Q267.297 507.181 268.572 506.212Q269.847 505.243 270.484 503.569Q271.122 501.894 271.122 499.803L271.122 499.803Q271.122 497.729 270.493 496.063Q269.864 494.397 268.58 493.428Q267.297 492.459 265.325 492.459L265.325 492.459Q263.404 492.459 262.137 493.394Q260.871 494.329 260.242 495.987Q259.613 497.644 259.613 499.803L259.613 499.803Q259.613 501.928 260.242 503.603Q260.871 505.277 262.146 506.229Q263.421 507.181 265.376 507.181ZM280.353 509L277.854 509L277.854 484.01L280.353 484.01L280.353 509ZM290.706 509.51L290.706 509.51Q288.632 509.51 287.23 508.762Q285.827 508.014 285.13 506.773Q284.433 505.532 284.433 504.07L284.433 504.07Q284.433 502.574 285.037 501.512Q285.64 500.449 286.686 499.769Q287.731 499.089 289.108 498.732L289.108 498.732Q290.502 498.392 292.194 498.129Q293.885 497.865 295.508 497.67Q297.132 497.474 298.356 497.287L298.356 497.287L297.472 497.831Q297.523 495.111 296.418 493.802Q295.313 492.493 292.576 492.493L292.576 492.493Q290.689 492.493 289.388 493.343Q288.088 494.193 287.561 496.029L287.561 496.029L285.13 495.315Q285.759 492.85 287.663 491.49Q289.567 490.13 292.61 490.13L292.61 490.13Q295.126 490.13 296.886 491.074Q298.645 492.017 299.376 493.802L299.376 493.802Q299.716 494.601 299.818 495.587Q299.92 496.573 299.92 497.593L299.92 497.593L299.92 509L297.693 509L297.693 504.393L298.339 504.665Q297.404 507.028 295.432 508.269Q293.46 509.51 290.706 509.51ZM290.995 507.351L290.995 507.351Q292.746 507.351 294.055 506.722Q295.364 506.093 296.163 504.997Q296.962 503.9 297.2 502.523L297.2 502.523Q297.404 501.639 297.421 500.577Q297.438 499.514 297.438 498.987L297.438 498.987L298.39 499.48Q297.115 499.65 295.628 499.82Q294.14 499.99 292.703 500.211Q291.267 500.432 290.111 500.738L290.111 500.738Q289.329 500.959 288.598 501.359Q287.867 501.758 287.4 502.421Q286.932 503.084 286.932 504.07L286.932 504.07Q286.932 504.869 287.332 505.617Q287.731 506.365 288.624 506.858Q289.516 507.351 290.995 507.351ZM311.956 509.51L311.956 509.51Q309.185 509.51 307.264 508.269Q305.343 507.028 304.349 504.844Q303.354 502.659 303.32 499.82L303.32 499.82Q303.354 496.93 304.374 494.746Q305.394 492.561 307.315 491.346Q309.236 490.13 311.973 490.13L311.973 490.13Q314.761 490.13 316.826 491.49Q318.892 492.85 319.657 495.213L319.657 495.213L317.209 495.995Q316.563 494.346 315.16 493.437Q313.758 492.527 311.956 492.527L311.956 492.527Q309.933 492.527 308.607 493.454Q307.281 494.38 306.635 496.029Q305.989 497.678 305.972 499.82L305.972 499.82Q306.006 503.118 307.502 505.116Q308.998 507.113 311.956 507.113L311.956 507.113Q313.826 507.113 315.143 506.255Q316.461 505.396 317.141 503.747L317.141 503.747L319.657 504.495Q318.637 506.943 316.665 508.227Q314.693 509.51 311.956 509.51ZM325.675 509L323.142 509L323.159 484.52L325.675 484.52L325.675 499.48L333.869 490.64L337.201 490.64L328.599 499.82L338.323 509L334.685 509L325.675 500.16L325.675 509ZM342.522 509L340.023 509L340.023 490.64L342.267 490.64L342.267 495.06L341.825 494.482Q342.131 493.666 342.624 492.978Q343.117 492.289 343.695 491.847L343.695 491.847Q344.409 491.218 345.361 490.887Q346.313 490.555 347.282 490.496Q348.251 490.436 349.05 490.64L349.05 490.64L349.05 492.986Q348.047 492.731 346.857 492.867Q345.667 493.003 344.664 493.819L344.664 493.819Q343.746 494.533 343.287 495.528Q342.828 496.522 342.675 497.636Q342.522 498.749 342.522 499.837L342.522 499.837L342.522 509ZM357.533 509.51L357.533 509.51Q355.459 509.51 354.057 508.762Q352.654 508.014 351.957 506.773Q351.26 505.532 351.26 504.07L351.26 504.07Q351.26 502.574 351.864 501.512Q352.467 500.449 353.513 499.769Q354.558 499.089 355.935 498.732L355.935 498.732Q357.329 498.392 359.02 498.129Q360.712 497.865 362.335 497.67Q363.959 497.474 365.183 497.287L365.183 497.287L364.299 497.831Q364.35 495.111 363.245 493.802Q362.14 492.493 359.403 492.493L359.403 492.493Q357.516 492.493 356.215 493.343Q354.915 494.193 354.388 496.029L354.388 496.029L351.957 495.315Q352.586 492.85 354.49 491.49Q356.394 490.13 359.437 490.13L359.437 490.13Q361.953 490.13 363.713 491.074Q365.472 492.017 366.203 493.802L366.203 493.802Q366.543 494.601 366.645 495.587Q366.747 496.573 366.747 497.593L366.747 497.593L366.747 509L364.52 509L364.52 504.393L365.166 504.665Q364.231 507.028 362.259 508.269Q360.287 509.51 357.533 509.51ZM357.822 507.351L357.822 507.351Q359.573 507.351 360.882 506.722Q362.191 506.093 362.99 504.997Q363.789 503.9 364.027 502.523L364.027 502.523Q364.231 501.639 364.248 500.577Q364.265 499.514 364.265 498.987L364.265 498.987L365.217 499.48Q363.942 499.65 362.455 499.82Q360.967 499.99 359.53 500.211Q358.094 500.432 356.938 500.738L356.938 500.738Q356.156 500.959 355.425 501.359Q354.694 501.758 354.227 502.421Q353.759 503.084 353.759 504.07L353.759 504.07Q353.759 504.869 354.159 505.617Q354.558 506.365 355.451 506.858Q356.343 507.351 357.822 507.351ZM378.715 509L376.131 509L369.467 490.64L372 490.64L377.423 505.736L382.812 490.64L385.379 490.64L378.715 509ZM396.208 509.51L396.208 509.51Q393.522 509.51 391.559 508.32Q389.595 507.13 388.507 504.971Q387.419 502.812 387.419 499.905L387.419 499.905Q387.419 496.896 388.49 494.703Q389.561 492.51 391.508 491.32Q393.454 490.13 396.106 490.13L396.106 490.13Q398.826 490.13 400.747 491.38Q402.668 492.629 403.654 494.958Q404.64 497.287 404.555 500.517L404.555 500.517L402.005 500.517L402.005 499.633Q401.937 496.063 400.467 494.244Q398.996 492.425 396.174 492.425L396.174 492.425Q393.216 492.425 391.643 494.346Q390.071 496.267 390.071 499.82L390.071 499.82Q390.071 503.288 391.643 505.201Q393.216 507.113 396.106 507.113L396.106 507.113Q398.078 507.113 399.549 506.204Q401.019 505.294 401.869 503.577L401.869 503.577L404.198 504.478Q403.11 506.875 400.994 508.193Q398.877 509.51 396.208 509.51ZM403.212 500.517L389.187 500.517L389.187 498.426L403.212 498.426L403.212 500.517ZM424.088 509L421.572 509L421.572 499.633Q421.572 498.103 421.283 496.82Q420.994 495.536 420.357 494.576Q419.719 493.615 418.708 493.088Q417.696 492.561 416.251 492.561L416.251 492.561Q414.925 492.561 413.913 493.02Q412.902 493.479 412.213 494.338Q411.525 495.196 411.168 496.42Q410.811 497.644 410.811 499.208L410.811 499.208L409.043 498.817Q409.043 495.995 410.029 494.074Q411.015 492.153 412.749 491.167Q414.483 490.181 416.727 490.181L416.727 490.181Q418.376 490.181 419.608 490.691Q420.841 491.201 421.699 492.068Q422.558 492.935 423.085 494.049Q423.612 495.162 423.85 496.412Q424.088 497.661 424.088 498.902L424.088 498.902L424.088 509ZM410.811 509L408.295 509L408.295 490.64L410.556 490.64L410.556 495.162L410.811 495.162L410.811 509ZM433.761 509.51L433.761 509.51Q431.687 509.51 430.285 508.762Q428.882 508.014 428.185 506.773Q427.488 505.532 427.488 504.07L427.488 504.07Q427.488 502.574 428.092 501.512Q428.695 500.449 429.741 499.769Q430.786 499.089 432.163 498.732L432.163 498.732Q433.557 498.392 435.249 498.129Q436.94 497.865 438.564 497.67Q440.187 497.474 441.411 497.287L441.411 497.287L440.527 497.831Q440.578 495.111 439.473 493.802Q438.368 492.493 435.631 492.493L435.631 492.493Q433.744 492.493 432.444 493.343Q431.143 494.193 430.616 496.029L430.616 496.029L428.185 495.315Q428.814 492.85 430.718 491.49Q432.622 490.13 435.665 490.13L435.665 490.13Q438.181 490.13 439.941 491.074Q441.7 492.017 442.431 493.802L442.431 493.802Q442.771 494.601 442.873 495.587Q442.975 496.573 442.975 497.593L442.975 497.593L442.975 509L440.748 509L440.748 504.393L441.394 504.665Q440.459 507.028 438.487 508.269Q436.515 509.51 433.761 509.51ZM434.05 507.351L434.05 507.351Q435.801 507.351 437.11 506.722Q438.419 506.093 439.218 504.997Q440.017 503.9 440.255 502.523L440.255 502.523Q440.459 501.639 440.476 500.577Q440.493 499.514 440.493 498.987L440.493 498.987L441.445 499.48Q440.17 499.65 438.683 499.82Q437.195 499.99 435.758 500.211Q434.322 500.432 433.166 500.738L433.166 500.738Q432.384 500.959 431.653 501.359Q430.922 501.758 430.455 502.421Q429.987 503.084 429.987 504.07L429.987 504.07Q429.987 504.869 430.387 505.617Q430.786 506.365 431.679 506.858Q432.571 507.351 434.05 507.351ZM450.234 487.155L447.735 487.155L447.735 484.35L450.234 484.35L450.234 487.155ZM450.234 509L447.735 509L447.735 490.64L450.234 490.64L450.234 509ZM458.717 509L455.81 509L455.81 506.093L458.717 506.093L458.717 509ZM471.569 509.51L471.569 509.51Q468.798 509.51 466.877 508.269Q464.956 507.028 463.962 504.844Q462.967 502.659 462.933 499.82L462.933 499.82Q462.967 496.93 463.987 494.746Q465.007 492.561 466.928 491.346Q468.849 490.13 471.586 490.13L471.586 490.13Q474.374 490.13 476.439 491.49Q478.505 492.85 479.27 495.213L479.27 495.213L476.822 495.995Q476.176 494.346 474.773 493.437Q473.371 492.527 471.569 492.527L471.569 492.527Q469.546 492.527 468.22 493.454Q466.894 494.38 466.248 496.029Q465.602 497.678 465.585 499.82L465.585 499.82Q465.619 503.118 467.115 505.116Q468.611 507.113 471.569 507.113L471.569 507.113Q473.439 507.113 474.756 506.255Q476.074 505.396 476.754 503.747L476.754 503.747L479.27 504.495Q478.25 506.943 476.278 508.227Q474.306 509.51 471.569 509.51ZM490.439 509.51L490.439 509.51Q487.702 509.51 485.764 508.269Q483.826 507.028 482.789 504.835Q481.752 502.642 481.752 499.803L481.752 499.803Q481.752 496.913 482.806 494.737Q483.86 492.561 485.807 491.346Q487.753 490.13 490.439 490.13L490.439 490.13Q493.193 490.13 495.14 491.363Q497.086 492.595 498.115 494.78Q499.143 496.964 499.143 499.803L499.143 499.803Q499.143 502.693 498.106 504.878Q497.069 507.062 495.114 508.286Q493.159 509.51 490.439 509.51ZM490.439 507.113L490.439 507.113Q493.499 507.113 494.995 505.082Q496.491 503.05 496.491 499.803L496.491 499.803Q496.491 496.471 494.987 494.499Q493.482 492.527 490.439 492.527L490.439 492.527Q488.382 492.527 487.048 493.454Q485.713 494.38 485.059 496.02Q484.404 497.661 484.404 499.803L484.404 499.803Q484.404 503.118 485.934 505.116Q487.464 507.113 490.439 507.113ZM527.278 509L524.779 509L524.796 496.947Q524.796 494.822 523.615 493.607Q522.433 492.391 520.614 492.391L520.614 492.391Q519.577 492.391 518.591 492.867Q517.605 493.343 516.968 494.397Q516.33 495.451 516.33 497.151L516.33 497.151L514.851 496.726Q514.8 494.754 515.625 493.275Q516.449 491.796 517.903 490.972Q519.356 490.147 521.192 490.147L521.192 490.147Q523.963 490.147 525.629 491.856Q527.295 493.564 527.295 496.471L527.295 496.471L527.278 509ZM505.382 509L502.866 509L502.866 490.64L505.11 490.64L505.11 495.162L505.382 495.162L505.382 509ZM516.313 509L513.848 509L513.865 497.117Q513.865 494.924 512.701 493.658Q511.536 492.391 509.632 492.391L509.632 492.391Q507.728 492.391 506.555 493.692Q505.382 494.992 505.382 497.151L505.382 497.151L503.886 496.335Q503.886 494.567 504.719 493.165Q505.552 491.762 506.997 490.955Q508.442 490.147 510.278 490.147L510.278 490.147Q512.029 490.147 513.398 490.895Q514.766 491.643 515.548 493.071Q516.33 494.499 516.33 496.539L516.33 496.539L516.313 509Z" fill="#FFFFFF"/><path d="M110.625 559.51L110.625 559.51Q108.092 559.51 106.341 558.227Q104.59 556.943 103.689 554.742Q102.788 552.54 102.788 549.803L102.788 549.803Q102.788 547.015 103.698 544.831Q104.607 542.646 106.375 541.388Q108.143 540.13 110.727 540.13L110.727 540.13Q113.243 540.13 115.045 541.405Q116.847 542.68 117.808 544.873Q118.768 547.066 118.768 549.803L118.768 549.803Q118.768 552.557 117.799 554.75Q116.83 556.943 115.011 558.227Q113.192 559.51 110.625 559.51ZM104.607 559L102.363 559L102.363 534.52L104.879 534.52L104.879 545.179L104.607 545.179L104.607 559ZM110.37 557.181L110.37 557.181Q112.291 557.181 113.566 556.212Q114.841 555.243 115.479 553.569Q116.116 551.894 116.116 549.803L116.116 549.803Q116.116 547.729 115.487 546.063Q114.858 544.397 113.575 543.428Q112.291 542.459 110.319 542.459L110.319 542.459Q108.398 542.459 107.132 543.394Q105.865 544.329 105.236 545.987Q104.607 547.644 104.607 549.803L104.607 549.803Q104.607 551.928 105.236 553.603Q105.865 555.277 107.14 556.229Q108.415 557.181 110.37 557.181ZM125.347 559L122.848 559L122.848 534.01L125.347 534.01L125.347 559ZM135.7 559.51L135.7 559.51Q133.626 559.51 132.224 558.762Q130.821 558.014 130.124 556.773Q129.427 555.532 129.427 554.07L129.427 554.07Q129.427 552.574 130.031 551.512Q130.634 550.449 131.68 549.769Q132.725 549.089 134.102 548.732L134.102 548.732Q135.496 548.392 137.188 548.129Q138.879 547.865 140.503 547.67Q142.126 547.474 143.35 547.287L143.35 547.287L142.466 547.831Q142.517 545.111 141.412 543.802Q140.307 542.493 137.57 542.493L137.57 542.493Q135.683 542.493 134.383 543.343Q133.082 544.193 132.555 546.029L132.555 546.029L130.124 545.315Q130.753 542.85 132.657 541.49Q134.561 540.13 137.604 540.13L137.604 540.13Q140.12 540.13 141.88 541.074Q143.639 542.017 144.37 543.802L144.37 543.802Q144.71 544.601 144.812 545.587Q144.914 546.573 144.914 547.593L144.914 547.593L144.914 559L142.687 559L142.687 554.393L143.333 554.665Q142.398 557.028 140.426 558.269Q138.454 559.51 135.7 559.51ZM135.989 557.351L135.989 557.351Q137.74 557.351 139.049 556.722Q140.358 556.093 141.157 554.997Q141.956 553.9 142.194 552.523L142.194 552.523Q142.398 551.639 142.415 550.577Q142.432 549.514 142.432 548.987L142.432 548.987L143.384 549.48Q142.109 549.65 140.622 549.82Q139.134 549.99 137.698 550.211Q136.261 550.432 135.105 550.738L135.105 550.738Q134.323 550.959 133.592 551.359Q132.861 551.758 132.394 552.421Q131.926 553.084 131.926 554.07L131.926 554.07Q131.926 554.869 132.326 555.617Q132.725 556.365 133.618 556.858Q134.51 557.351 135.989 557.351ZM156.95 559.51L156.95 559.51Q154.179 559.51 152.258 558.269Q150.337 557.028 149.343 554.844Q148.348 552.659 148.314 549.82L148.314 549.82Q148.348 546.93 149.368 544.746Q150.388 542.561 152.309 541.346Q154.23 540.13 156.967 540.13L156.967 540.13Q159.755 540.13 161.821 541.49Q163.886 542.85 164.651 545.213L164.651 545.213L162.203 545.995Q161.557 544.346 160.155 543.437Q158.752 542.527 156.95 542.527L156.95 542.527Q154.927 542.527 153.601 543.454Q152.275 544.38 151.629 546.029Q150.983 547.678 150.966 549.82L150.966 549.82Q151 553.118 152.496 555.116Q153.992 557.113 156.95 557.113L156.95 557.113Q158.82 557.113 160.138 556.255Q161.455 555.396 162.135 553.747L162.135 553.747L164.651 554.495Q163.631 556.943 161.659 558.227Q159.687 559.51 156.95 559.51ZM170.669 559L168.136 559L168.153 534.52L170.669 534.52L170.669 549.48L178.863 540.64L182.195 540.64L173.593 549.82L183.317 559L179.679 559L170.669 550.16L170.669 559ZM187.516 559L185.017 559L185.017 540.64L187.261 540.64L187.261 545.06L186.819 544.482Q187.125 543.666 187.618 542.978Q188.111 542.289 188.689 541.847L188.689 541.847Q189.403 541.218 190.355 540.887Q191.307 540.555 192.276 540.496Q193.245 540.436 194.044 540.64L194.044 540.64L194.044 542.986Q193.041 542.731 191.851 542.867Q190.661 543.003 189.658 543.819L189.658 543.819Q188.74 544.533 188.281 545.528Q187.822 546.522 187.669 547.636Q187.516 548.749 187.516 549.837L187.516 549.837L187.516 559ZM202.527 559.51L202.527 559.51Q200.453 559.51 199.051 558.762Q197.648 558.014 196.951 556.773Q196.254 555.532 196.254 554.07L196.254 554.07Q196.254 552.574 196.858 551.512Q197.461 550.449 198.507 549.769Q199.552 549.089 200.929 548.732L200.929 548.732Q202.323 548.392 204.015 548.129Q205.706 547.865 207.33 547.67Q208.953 547.474 210.177 547.287L210.177 547.287L209.293 547.831Q209.344 545.111 208.239 543.802Q207.134 542.493 204.397 542.493L204.397 542.493Q202.51 542.493 201.21 543.343Q199.909 544.193 199.382 546.029L199.382 546.029L196.951 545.315Q197.58 542.85 199.484 541.49Q201.388 540.13 204.431 540.13L204.431 540.13Q206.947 540.13 208.707 541.074Q210.466 542.017 211.197 543.802L211.197 543.802Q211.537 544.601 211.639 545.587Q211.741 546.573 211.741 547.593L211.741 547.593L211.741 559L209.514 559L209.514 554.393L210.16 554.665Q209.225 557.028 207.253 558.269Q205.281 559.51 202.527 559.51ZM202.816 557.351L202.816 557.351Q204.567 557.351 205.876 556.722Q207.185 556.093 207.984 554.997Q208.783 553.9 209.021 552.523L209.021 552.523Q209.225 551.639 209.242 550.577Q209.259 549.514 209.259 548.987L209.259 548.987L210.211 549.48Q208.936 549.65 207.449 549.82Q205.961 549.99 204.525 550.211Q203.088 550.432 201.932 550.738L201.932 550.738Q201.15 550.959 200.419 551.359Q199.688 551.758 199.221 552.421Q198.753 553.084 198.753 554.07L198.753 554.07Q198.753 554.869 199.153 555.617Q199.552 556.365 200.445 556.858Q201.337 557.351 202.816 557.351ZM223.709 559L221.125 559L214.461 540.64L216.994 540.64L222.417 555.736L227.806 540.64L230.373 540.64L223.709 559ZM241.202 559.51L241.202 559.51Q238.516 559.51 236.553 558.32Q234.589 557.13 233.501 554.971Q232.413 552.812 232.413 549.905L232.413 549.905Q232.413 546.896 233.484 544.703Q234.555 542.51 236.502 541.32Q238.448 540.13 241.1 540.13L241.1 540.13Q243.82 540.13 245.741 541.38Q247.662 542.629 248.648 544.958Q249.634 547.287 249.549 550.517L249.549 550.517L246.999 550.517L246.999 549.633Q246.931 546.063 245.461 544.244Q243.99 542.425 241.168 542.425L241.168 542.425Q238.21 542.425 236.638 544.346Q235.065 546.267 235.065 549.82L235.065 549.82Q235.065 553.288 236.638 555.201Q238.21 557.113 241.1 557.113L241.1 557.113Q243.072 557.113 244.543 556.204Q246.013 555.294 246.863 553.577L246.863 553.577L249.192 554.478Q248.104 556.875 245.988 558.193Q243.871 559.51 241.202 559.51ZM248.206 550.517L234.181 550.517L234.181 548.426L248.206 548.426L248.206 550.517ZM269.082 559L266.566 559L266.566 549.633Q266.566 548.103 266.277 546.82Q265.988 545.536 265.351 544.576Q264.713 543.615 263.702 543.088Q262.69 542.561 261.245 542.561L261.245 542.561Q259.919 542.561 258.908 543.02Q257.896 543.479 257.208 544.338Q256.519 545.196 256.162 546.42Q255.805 547.644 255.805 549.208L255.805 549.208L254.037 548.817Q254.037 545.995 255.023 544.074Q256.009 542.153 257.743 541.167Q259.477 540.181 261.721 540.181L261.721 540.181Q263.37 540.181 264.603 540.691Q265.835 541.201 266.694 542.068Q267.552 542.935 268.079 544.049Q268.606 545.162 268.844 546.412Q269.082 547.661 269.082 548.902L269.082 548.902L269.082 559ZM255.805 559L253.289 559L253.289 540.64L255.55 540.64L255.55 545.162L255.805 545.162L255.805 559ZM278.755 559.51L278.755 559.51Q276.681 559.51 275.279 558.762Q273.876 558.014 273.179 556.773Q272.482 555.532 272.482 554.07L272.482 554.07Q272.482 552.574 273.086 551.512Q273.689 550.449 274.735 549.769Q275.78 549.089 277.157 548.732L277.157 548.732Q278.551 548.392 280.243 548.129Q281.934 547.865 283.558 547.67Q285.181 547.474 286.405 547.287L286.405 547.287L285.521 547.831Q285.572 545.111 284.467 543.802Q283.362 542.493 280.625 542.493L280.625 542.493Q278.738 542.493 277.438 543.343Q276.137 544.193 275.61 546.029L275.61 546.029L273.179 545.315Q273.808 542.85 275.712 541.49Q277.616 540.13 280.659 540.13L280.659 540.13Q283.175 540.13 284.935 541.074Q286.694 542.017 287.425 543.802L287.425 543.802Q287.765 544.601 287.867 545.587Q287.969 546.573 287.969 547.593L287.969 547.593L287.969 559L285.742 559L285.742 554.393L286.388 554.665Q285.453 557.028 283.481 558.269Q281.509 559.51 278.755 559.51ZM279.044 557.351L279.044 557.351Q280.795 557.351 282.104 556.722Q283.413 556.093 284.212 554.997Q285.011 553.9 285.249 552.523L285.249 552.523Q285.453 551.639 285.47 550.577Q285.487 549.514 285.487 548.987L285.487 548.987L286.439 549.48Q285.164 549.65 283.677 549.82Q282.189 549.99 280.753 550.211Q279.316 550.432 278.16 550.738L278.16 550.738Q277.378 550.959 276.647 551.359Q275.916 551.758 275.449 552.421Q274.981 553.084 274.981 554.07L274.981 554.07Q274.981 554.869 275.381 555.617Q275.78 556.365 276.673 556.858Q277.565 557.351 279.044 557.351ZM295.228 537.155L292.729 537.155L292.729 534.35L295.228 534.35L295.228 537.155ZM295.228 559L292.729 559L292.729 540.64L295.228 540.64L295.228 559ZM303.711 559L300.804 559L300.804 556.093L303.711 556.093L303.711 559ZM316.563 559.51L316.563 559.51Q313.792 559.51 311.871 558.269Q309.95 557.028 308.956 554.844Q307.961 552.659 307.927 549.82L307.927 549.82Q307.961 546.93 308.981 544.746Q310.001 542.561 311.922 541.346Q313.843 540.13 316.58 540.13L316.58 540.13Q319.368 540.13 321.434 541.49Q323.499 542.85 324.264 545.213L324.264 545.213L321.816 545.995Q321.17 544.346 319.768 543.437Q318.365 542.527 316.563 542.527L316.563 542.527Q314.54 542.527 313.214 543.454Q311.888 544.38 311.242 546.029Q310.596 547.678 310.579 549.82L310.579 549.82Q310.613 553.118 312.109 555.116Q313.605 557.113 316.563 557.113L316.563 557.113Q318.433 557.113 319.751 556.255Q321.068 555.396 321.748 553.747L321.748 553.747L324.264 554.495Q323.244 556.943 321.272 558.227Q319.3 559.51 316.563 559.51ZM335.433 559.51L335.433 559.51Q332.696 559.51 330.758 558.269Q328.82 557.028 327.783 554.835Q326.746 552.642 326.746 549.803L326.746 549.803Q326.746 546.913 327.8 544.737Q328.854 542.561 330.801 541.346Q332.747 540.13 335.433 540.13L335.433 540.13Q338.187 540.13 340.134 541.363Q342.08 542.595 343.109 544.78Q344.137 546.964 344.137 549.803L344.137 549.803Q344.137 552.693 343.1 554.878Q342.063 557.062 340.108 558.286Q338.153 559.51 335.433 559.51ZM335.433 557.113L335.433 557.113Q338.493 557.113 339.989 555.082Q341.485 553.05 341.485 549.803L341.485 549.803Q341.485 546.471 339.981 544.499Q338.476 542.527 335.433 542.527L335.433 542.527Q333.376 542.527 332.042 543.454Q330.707 544.38 330.053 546.021Q329.398 547.661 329.398 549.803L329.398 549.803Q329.398 553.118 330.928 555.116Q332.458 557.113 335.433 557.113ZM372.272 559L369.773 559L369.79 546.947Q369.79 544.822 368.609 543.607Q367.427 542.391 365.608 542.391L365.608 542.391Q364.571 542.391 363.585 542.867Q362.599 543.343 361.962 544.397Q361.324 545.451 361.324 547.151L361.324 547.151L359.845 546.726Q359.794 544.754 360.619 543.275Q361.443 541.796 362.897 540.972Q364.35 540.147 366.186 540.147L366.186 540.147Q368.957 540.147 370.623 541.856Q372.289 543.564 372.289 546.471L372.289 546.471L372.272 559ZM350.376 559L347.86 559L347.86 540.64L350.104 540.64L350.104 545.162L350.376 545.162L350.376 559ZM361.307 559L358.842 559L358.859 547.117Q358.859 544.924 357.695 543.658Q356.53 542.391 354.626 542.391L354.626 542.391Q352.722 542.391 351.549 543.692Q350.376 544.992 350.376 547.151L350.376 547.151L348.88 546.335Q348.88 544.567 349.713 543.165Q350.546 541.762 351.991 540.955Q353.436 540.147 355.272 540.147L355.272 540.147Q357.023 540.147 358.392 540.895Q359.76 541.643 360.542 543.071Q361.324 544.499 361.324 546.539L361.324 546.539L361.307 559Z" fill="#FFFFFF"/><path d="M723.487 574.345L723.487 574.345Q721.727 574.345 720.318 573.747Q718.91 573.149 717.995 572.039Q717.081 570.93 716.805 569.412L716.805 569.412L718.921 569.078Q719.324 570.642 720.594 571.522Q721.865 572.402 723.59 572.402L723.59 572.402Q724.706 572.402 725.608 572.051Q726.511 571.7 727.04 571.045Q727.569 570.389 727.569 569.492L727.569 569.492Q727.569 568.94 727.379 568.543Q727.19 568.147 726.862 567.865Q726.534 567.583 726.12 567.388Q725.706 567.192 725.258 567.066L725.258 567.066L721.037 565.812Q720.347 565.605 719.703 565.289Q719.059 564.973 718.553 564.495Q718.047 564.018 717.748 563.345Q717.449 562.673 717.449 561.753L717.449 561.753Q717.449 560.281 718.214 559.24Q718.979 558.199 720.29 557.647Q721.601 557.095 723.245 557.107L723.245 557.107Q724.913 557.118 726.229 557.699Q727.546 558.28 728.414 559.361Q729.283 560.442 729.582 561.948L729.582 561.948L727.408 562.328Q727.236 561.316 726.643 560.585Q726.051 559.855 725.166 559.458Q724.28 559.062 723.222 559.05L723.222 559.05Q722.21 559.039 721.394 559.372Q720.577 559.706 720.094 560.298Q719.611 560.89 719.611 561.661L719.611 561.661Q719.611 562.42 720.048 562.885Q720.485 563.351 721.123 563.621Q721.762 563.892 722.371 564.064L722.371 564.064L725.522 564.973Q726.063 565.122 726.77 565.387Q727.477 565.651 728.144 566.128Q728.811 566.606 729.248 567.393Q729.685 568.181 729.685 569.377L729.685 569.377Q729.685 570.573 729.208 571.505Q728.731 572.436 727.88 573.063Q727.029 573.69 725.902 574.017Q724.775 574.345 723.487 574.345ZM739.908 574.345L739.908 574.345Q737.436 574.345 735.711 573.253Q733.986 572.16 733.083 570.217Q732.18 568.273 732.18 565.72L732.18 565.72Q732.18 563.167 733.083 561.224Q733.986 559.28 735.711 558.188Q737.436 557.095 739.908 557.095L739.908 557.095Q742.392 557.095 744.117 558.188Q745.842 559.28 746.739 561.224Q747.636 563.167 747.636 565.72L747.636 565.72Q747.636 568.273 746.739 570.217Q745.842 572.16 744.117 573.253Q742.392 574.345 739.908 574.345ZM739.908 572.39L739.908 572.39Q741.76 572.402 742.996 571.556Q744.232 570.711 744.847 569.205Q745.463 567.698 745.463 565.72L745.463 565.72Q745.463 563.731 744.847 562.236Q744.232 560.741 742.996 559.901Q741.76 559.062 739.908 559.05L739.908 559.05Q738.057 559.039 736.832 559.878Q735.607 560.718 734.986 562.224Q734.365 563.731 734.354 565.72L734.354 565.72Q734.342 567.698 734.963 569.193Q735.584 570.688 736.82 571.533Q738.057 572.379 739.908 572.39ZM752.983 574L750.936 574L750.936 557.44L760.596 557.44L760.596 559.487L752.983 559.487L752.983 564.697L759.216 564.697L759.216 566.744L752.983 566.744L752.983 574ZM769.98 574L767.933 574L767.933 559.384L762.286 559.384L762.286 557.44L775.626 557.44L775.626 559.384L769.98 559.384L769.98 574ZM784.044 574L781.997 574L777.201 557.44L779.34 557.44L783.02 570.539L786.689 557.452L788.839 557.44L792.519 570.539L796.188 557.44L798.338 557.44L793.543 574L791.496 574L787.77 561.017L784.044 574ZM802.271 574L800.143 574L805.686 557.44L808.538 557.44L814.081 574L811.954 574L806.767 558.636L807.411 558.636L802.271 574ZM811.413 570.125L802.811 570.125L802.811 568.204L811.413 568.204L811.413 570.125ZM819.198 574L817.151 574L817.151 557.44L823.695 557.44Q823.936 557.44 824.27 557.457Q824.603 557.475 824.913 557.532L824.913 557.532Q826.259 557.739 827.173 558.452Q828.088 559.165 828.547 560.252Q829.007 561.339 829.007 562.661L829.007 562.661Q829.007 564.582 828.007 565.99Q827.007 567.399 825.075 567.756L825.075 567.756L824.292 567.882L819.198 567.882L819.198 574ZM829.353 574L827.007 574L823.74 567.261L825.764 566.64L829.353 574ZM819.198 559.384L819.198 565.939L823.626 565.939Q823.844 565.939 824.126 565.916Q824.407 565.893 824.661 565.835L824.661 565.835Q825.454 565.651 825.954 565.162Q826.454 564.674 826.685 564.012Q826.915 563.351 826.915 562.661L826.915 562.661Q826.915 561.971 826.685 561.31Q826.454 560.649 825.954 560.154Q825.454 559.66 824.661 559.487L824.661 559.487Q824.407 559.418 824.126 559.401Q823.844 559.384 823.626 559.384L823.626 559.384L819.198 559.384ZM843.348 574L832.882 574L832.882 557.44L843.348 557.44L843.348 559.384L834.93 559.384L834.93 564.57L841.968 564.57L841.968 566.514L834.93 566.514L834.93 572.057L843.348 572.057L843.348 574ZM858.285 574L856.238 574L851.443 557.44L853.582 557.44L857.262 570.539L860.93 557.452L863.08 557.44L866.761 570.539L870.429 557.44L872.579 557.44L867.784 574L865.737 574L862.011 561.017L858.285 574ZM877.811 574L875.765 574L875.765 557.44L877.811 557.44L877.811 574ZM888.575 574L886.528 574L886.528 559.384L880.882 559.384L880.882 557.44L894.222 557.44L894.222 559.384L888.575 559.384L888.575 574ZM899.108 574L897.061 574L897.061 557.44L899.108 557.44L899.108 564.743L907.825 564.743L907.825 557.44L909.873 557.44L909.873 574L907.825 574L907.825 566.686L899.108 566.686L899.108 574ZM926.5 574.345L926.5 574.345Q924.028 574.345 922.303 573.253Q920.578 572.16 919.675 570.217Q918.772 568.273 918.772 565.72L918.772 565.72Q918.772 563.167 919.675 561.224Q920.578 559.28 922.303 558.188Q924.028 557.095 926.5 557.095L926.5 557.095Q929.375 557.095 931.233 558.556Q933.09 560.016 933.791 562.489L933.791 562.489L931.71 563.041Q931.204 561.189 929.904 560.12Q928.605 559.05 926.5 559.05L926.5 559.05Q924.649 559.05 923.418 559.89Q922.188 560.729 921.567 562.23Q920.946 563.731 920.934 565.72L920.934 565.72Q920.923 567.698 921.544 569.199Q922.165 570.7 923.407 571.545Q924.649 572.39 926.5 572.39L926.5 572.39Q928.605 572.39 929.904 571.315Q931.204 570.24 931.71 568.4L931.71 568.4L933.791 568.952Q933.09 571.413 931.233 572.879Q929.375 574.345 926.5 574.345ZM938.299 574L936.171 574L941.714 557.44L944.566 557.44L950.109 574L947.982 574L942.795 558.636L943.439 558.636L938.299 574ZM947.441 570.125L938.839 570.125L938.839 568.204L947.441 568.204L947.441 570.125ZM955.226 574L953.179 574L953.179 557.44L959.723 557.44Q959.964 557.44 960.298 557.457Q960.631 557.475 960.942 557.532L960.942 557.532Q962.287 557.739 963.202 558.452Q964.116 559.165 964.576 560.252Q965.036 561.339 965.036 562.661L965.036 562.661Q965.036 564.582 964.035 565.99Q963.035 567.399 961.103 567.756L961.103 567.756L960.321 567.882L955.226 567.882L955.226 574ZM965.381 574L963.035 574L959.769 567.261L961.793 566.64L965.381 574ZM955.226 559.384L955.226 565.939L959.654 565.939Q959.872 565.939 960.154 565.916Q960.436 565.893 960.689 565.835L960.689 565.835Q961.482 565.651 961.983 565.162Q962.483 564.674 962.713 564.012Q962.943 563.351 962.943 562.661L962.943 562.661Q962.943 561.971 962.713 561.31Q962.483 560.649 961.983 560.154Q961.482 559.66 960.689 559.487L960.689 559.487Q960.436 559.418 960.154 559.401Q959.872 559.384 959.654 559.384L959.654 559.384L955.226 559.384ZM979.376 574L968.911 574L968.911 557.44L979.376 557.44L979.376 559.384L970.958 559.384L970.958 564.57L977.996 564.57L977.996 566.514L970.958 566.514L970.958 572.057L979.376 572.057L979.376 574ZM985.758 574L983.504 574L983.504 571.746L985.758 571.746L985.758 574Z" fill="#FFFFFF"/></svg>