<svg xmlns="http://www.w3.org/2000/svg" width="1000" height="560" viewBox="0 0 1000 560" role="img" aria-label="BlackRaven editorial lockup in ink"><path d="M103.5 168.4L211 207.1L254 168.4L292.7 168.4L348.6 211.4L288.4 224.3L258.3 297.4L168 379.1L198.1 275.9Z" fill="#101217"/><path d="M475.066 262L443.93 262L443.93 190.72L472.195 190.72Q479.422 190.72 484.05 193.616Q488.678 196.512 490.93 201.016Q493.183 205.521 493.183 210.322L493.183 210.322Q493.183 216.213 490.386 220.321Q487.589 224.43 482.788 225.865L482.788 225.865L482.788 223.39Q489.52 224.925 493.009 229.776Q496.499 234.627 496.499 240.814L496.499 240.814Q496.499 247.15 494.074 251.902Q491.648 256.654 486.871 259.327Q482.095 262 475.066 262L475.066 262ZM456.008 230.32L456.008 250.764L473.581 250.764Q476.699 250.764 479.174 249.501Q481.649 248.239 483.06 245.937Q484.471 243.636 484.471 240.468L484.471 240.468Q484.471 237.597 483.233 235.32Q481.996 233.043 479.62 231.681Q477.244 230.32 473.927 230.32L473.927 230.32L456.008 230.32ZM456.008 201.858L456.008 219.183L472.046 219.183Q474.62 219.183 476.65 218.193Q478.679 217.203 479.867 215.272Q481.055 213.342 481.055 210.52L481.055 210.52Q481.055 206.808 478.679 204.332Q476.303 201.858 472.046 201.858L472.046 201.858L456.008 201.858ZM552.801 262L509.389 262L509.389 190.72L521.319 190.72L521.319 250.813L552.801 250.813L552.801 262ZM570.541 262L558.266 262L580.738 190.72L598.212 190.72L620.685 262L608.409 262L588.015 198.046L590.688 198.046L570.541 262ZM608.211 246.556L570.789 246.556L570.789 235.419L608.211 235.419L608.211 246.556ZM661.741 263.485L661.741 263.485Q651.049 263.485 643.426 258.807Q635.803 254.13 631.719 245.764Q627.635 237.399 627.635 226.36L627.635 226.36Q627.635 215.322 631.719 206.956Q635.803 198.591 643.426 193.913Q651.049 189.235 661.741 189.235L661.741 189.235Q674.066 189.235 682.283 195.398Q690.5 201.561 693.816 212.005L693.816 212.005L681.788 215.322Q679.709 208.342 674.709 204.407Q669.71 200.472 661.741 200.472L661.741 200.472Q654.563 200.472 649.786 203.689Q645.01 206.907 642.609 212.723Q640.208 218.539 640.159 226.36L640.159 226.36Q640.159 234.181 642.559 239.997Q644.96 245.814 649.762 249.031Q654.563 252.249 661.741 252.249L661.741 252.249Q669.71 252.249 674.709 248.289Q679.709 244.329 681.788 237.399L681.788 237.399L693.816 240.715Q690.5 251.16 682.283 257.322Q674.066 263.485 661.741 263.485ZM718.636 262L706.706 262L706.706 190.72L718.636 190.72L718.636 223.786L747.099 190.72L761.751 190.72L731.11 225.667L763.829 262L748.682 262L718.636 228.736L718.636 262Z" fill="#101217"/><path d="M455.86 371L443.93 371L443.93 299.72L473.383 299.72Q474.422 299.72 476.056 299.794Q477.689 299.869 479.075 300.116L479.075 300.116Q485.263 301.057 489.297 304.225Q493.331 307.393 495.286 312.219Q497.242 317.045 497.242 322.936L497.242 322.936Q497.242 331.648 492.836 337.909Q488.431 344.171 479.323 345.656L479.323 345.656L474.224 346.102L455.86 346.102L455.86 371ZM498.38 371L484.867 371L470.809 341.993L482.936 339.32L498.38 371ZM455.86 310.907L455.86 334.964L472.888 334.964Q473.878 334.964 475.115 334.865Q476.353 334.766 477.392 334.469L477.392 334.469Q480.362 333.727 482.07 331.846Q483.778 329.965 484.495 327.589Q485.213 325.213 485.213 322.936L485.213 322.936Q485.213 320.659 484.495 318.258Q483.778 315.857 482.07 313.976Q480.362 312.095 477.392 311.353L477.392 311.353Q476.353 311.056 475.115 310.981Q473.878 310.907 472.888 310.907L472.888 310.907L455.86 310.907ZM518.596 371L506.32 371L528.793 299.72L546.267 299.72L568.74 371L556.464 371L536.07 307.046L538.743 307.046L518.596 371ZM556.266 355.556L518.844 355.556L518.844 344.419L556.266 344.419L556.266 355.556ZM613.161 371L595.688 371L573.215 299.72L585.491 299.72L604.301 359.417L623.358 299.72L635.634 299.72L613.161 371ZM691.094 371L645.059 371L645.059 299.72L691.094 299.72L691.094 310.907L656.989 310.907L656.989 328.48L685.154 328.48L685.154 339.667L656.989 339.667L656.989 359.813L691.094 359.813L691.094 371ZM717.052 371L704.974 371L704.974 299.72L717.052 299.72L750.118 349.963L750.118 299.72L762.196 299.72L762.196 371L750.118 371L717.052 320.758L717.052 371Z" fill="#101217"/></svg>